<svg width="36" height="36" viewBox="0 0 36 36" fill="none" xmlns="http://www.w3.org/2000/svg">
<g clip-path="url(#clip0_96_432)">
<path d="M0.5 13.1666C0.5 8.73291 0.5 6.51604 1.36286 4.82257C2.12186 3.33296 3.33296 2.12186 4.82257 1.36286C6.51604 0.5 8.73291 0.5 13.1666 0.5H22.8334C27.2671 0.5 29.484 0.5 31.1774 1.36286C32.667 2.12186 33.8781 3.33296 34.6371 4.82257C35.5 6.51604 35.5 8.73291 35.5 13.1666V22.8334C35.5 27.2671 35.5 29.484 34.6371 31.1774C33.8781 32.667 32.667 33.8781 31.1774 34.6371C29.484 35.5 27.2671 35.5 22.8334 35.5H13.1666C8.73291 35.5 6.51604 35.5 4.82257 34.6371C3.33296 33.8781 2.12186 32.667 1.36286 31.1774C0.5 29.484 0.5 27.2671 0.5 22.8334V13.1666Z" fill="#001E36"/>
<path d="M18.8815 26.2751H9.63066C9.47408 26.2751 9.39581 26.1867 9.39589 26.0102V10.7186C9.37856 10.5942 9.48594 10.4841 9.60723 10.5019H12.4718C12.566 10.4883 12.6491 10.5752 12.636 10.6705V23.2409H19.3746C19.5154 23.2409 19.5703 23.3131 19.5389 23.4576L19.1162 26.0584C19.1126 26.1894 19.0051 26.2737 18.8815 26.2751Z" fill="#31A8FF"/>
<path d="M21.2317 14.2899H23.7909C23.932 14.2911 24.0588 14.3911 24.0962 14.5308C24.2837 14.9579 24.3068 15.4729 24.3075 15.934C24.7464 15.4099 25.2757 14.9731 25.8688 14.6458C26.505 14.2765 27.2263 14.0894 27.9572 14.1039C28.0784 14.0861 28.1858 14.1963 28.1684 14.3206V17.2345C28.1684 17.347 28.0899 17.403 27.9337 17.403C26.8504 17.3264 25.1639 17.5889 24.3768 18.4626V26.039C24.3768 26.1835 24.3142 26.2558 24.1889 26.2558H21.443C21.3082 26.2755 21.1892 26.151 21.2082 26.0149V17.7884C21.2082 16.686 21.2315 15.5505 21.0673 14.4585C21.042 14.358 21.1359 14.2646 21.2317 14.2899Z" fill="#31A8FF"/>
</g>
<defs>
<clipPath id="clip0_96_432">
<rect width="36" height="36" fill="white"/>
</clipPath>
</defs>
</svg>
