<svg width="36" height="36" viewBox="0 0 36 36" fill="none" xmlns="http://www.w3.org/2000/svg">
<g clip-path="url(#clip0_96_424)">
<path d="M0.5 13.1666C0.5 8.73291 0.5 6.51604 1.36286 4.82257C2.12186 3.33296 3.33296 2.12186 4.82257 1.36286C6.51604 0.5 8.73291 0.5 13.1666 0.5H22.8334C27.2671 0.5 29.484 0.5 31.1774 1.36286C32.667 2.12186 33.8781 3.33296 34.6371 4.82257C35.5 6.51604 35.5 8.73291 35.5 13.1666V22.8334C35.5 27.2671 35.5 29.484 34.6371 31.1774C33.8781 32.667 32.667 33.8781 31.1774 34.6371C29.484 35.5 27.2671 35.5 22.8334 35.5H13.1666C8.73291 35.5 6.51604 35.5 4.82257 34.6371C3.33296 33.8781 2.12186 32.667 1.36286 31.1774C0.5 29.484 0.5 27.2671 0.5 22.8334V13.1666Z" fill="#00005B"/>
<path d="M15.2366 22.4548H9.813L8.70949 25.9774C8.67885 26.108 8.55856 26.2005 8.42772 26.1941H5.68067C5.52402 26.1941 5.46924 26.1059 5.51632 25.9293L10.2121 12.1158C10.2591 11.9714 10.306 11.8301 10.353 11.6454C10.4144 11.324 10.4459 10.9975 10.4469 10.6701C10.4335 10.5734 10.517 10.4877 10.6112 10.5015H14.3445C14.4539 10.5015 14.5164 10.5416 14.5322 10.6219L19.8621 25.9533C19.909 26.114 19.862 26.1943 19.7212 26.1941H16.6689C16.5619 26.2063 16.4596 26.1329 16.4341 26.0255L15.2366 22.4548ZM10.6582 19.4846H14.368C13.7585 17.4019 13.0706 15.3466 12.5131 13.2476C11.8814 15.4249 11.298 17.4441 10.6582 19.4846Z" fill="#9999FF"/>
<path d="M23.826 21.0946C24.0418 22.8833 25.5438 23.736 27.207 23.6996C28.1448 23.6813 29.1471 23.5356 30.0235 23.181C30.1015 23.1171 30.1408 23.157 30.1408 23.3015V25.5891C30.1482 25.7081 30.0985 25.8145 30 25.8781C28.9107 26.3729 27.6605 26.5221 26.4791 26.5031C22.9568 26.5031 20.538 24.0214 20.539 20.4106C20.5297 16.9889 22.7496 14.1021 26.1973 14.1021C29.12 14.0264 31.1433 16.3663 31.1515 19.2789C31.1515 19.8093 31.1218 20.3416 31.0576 20.8681C31.0451 20.9766 30.9527 21.0609 30.8462 21.0609C28.5121 21.0609 26.1666 21.0946 23.826 21.0946ZM23.826 18.9009C25.1268 18.9009 26.4352 18.9469 27.7352 18.8889C27.9306 18.8689 28.0757 18.8318 28.0757 18.6286C28.0486 17.5489 27.1373 16.6608 26.08 16.7021C24.8025 16.6229 23.9848 17.7014 23.826 18.9009Z" fill="#9999FF"/>
</g>
<defs>
<clipPath id="clip0_96_424">
<rect width="36" height="36" fill="white"/>
</clipPath>
</defs>
</svg>
