<svg width="36" height="36" viewBox="0 0 36 36" fill="none" xmlns="http://www.w3.org/2000/svg">
<path d="M0.5 13.1666C0.5 8.73291 0.5 6.51604 1.36286 4.82257C2.12186 3.33296 3.33296 2.12186 4.82257 1.36286C6.51604 0.5 8.73291 0.5 13.1666 0.5H22.8334C27.2671 0.5 29.484 0.5 31.1774 1.36286C32.667 2.12186 33.8781 3.33296 34.6371 4.82257C35.5 6.51604 35.5 8.73291 35.5 13.1666V22.8334C35.5 27.2671 35.5 29.484 34.6371 31.1774C33.8781 32.667 32.667 33.8781 31.1774 34.6371C29.484 35.5 27.2671 35.5 22.8334 35.5H13.1666C8.73291 35.5 6.51604 35.5 4.82257 34.6371C3.33296 33.8781 2.12186 32.667 1.36286 31.1774C0.5 29.484 0.5 27.2671 0.5 22.8334V13.1666Z" fill="white"/>
<path d="M0.5 13.1666C0.5 8.73291 0.5 6.51604 1.36286 4.82257C2.12186 3.33296 3.33296 2.12186 4.82257 1.36286C6.51604 0.5 8.73291 0.5 13.1666 0.5H22.8334C27.2671 0.5 29.484 0.5 31.1774 1.36286C32.667 2.12186 33.8781 3.33296 34.6371 4.82257C35.5 6.51604 35.5 8.73291 35.5 13.1666V22.8334C35.5 27.2671 35.5 29.484 34.6371 31.1774C33.8781 32.667 32.667 33.8781 31.1774 34.6371C29.484 35.5 27.2671 35.5 22.8334 35.5H13.1666C8.73291 35.5 6.51604 35.5 4.82257 34.6371C3.33296 33.8781 2.12186 32.667 1.36286 31.1774C0.5 29.484 0.5 27.2671 0.5 22.8334V13.1666Z" fill="url(#paint0_radial_96_410)"/>
<path d="M0.5 13.1666C0.5 8.73291 0.5 6.51604 1.36286 4.82257C2.12186 3.33296 3.33296 2.12186 4.82257 1.36286C6.51604 0.5 8.73291 0.5 13.1666 0.5H22.8334C27.2671 0.5 29.484 0.5 31.1774 1.36286C32.667 2.12186 33.8781 3.33296 34.6371 4.82257C35.5 6.51604 35.5 8.73291 35.5 13.1666V22.8334C35.5 27.2671 35.5 29.484 34.6371 31.1774C33.8781 32.667 32.667 33.8781 31.1774 34.6371C29.484 35.5 27.2671 35.5 22.8334 35.5H13.1666C8.73291 35.5 6.51604 35.5 4.82257 34.6371C3.33296 33.8781 2.12186 32.667 1.36286 31.1774C0.5 29.484 0.5 27.2671 0.5 22.8334V13.1666Z" fill="url(#paint1_radial_96_410)"/>
<path d="M0.5 13.1666C0.5 8.73291 0.5 6.51604 1.36286 4.82257C2.12186 3.33296 3.33296 2.12186 4.82257 1.36286C6.51604 0.5 8.73291 0.5 13.1666 0.5H22.8334C27.2671 0.5 29.484 0.5 31.1774 1.36286C32.667 2.12186 33.8781 3.33296 34.6371 4.82257C35.5 6.51604 35.5 8.73291 35.5 13.1666V22.8334C35.5 27.2671 35.5 29.484 34.6371 31.1774C33.8781 32.667 32.667 33.8781 31.1774 34.6371C29.484 35.5 27.2671 35.5 22.8334 35.5H13.1666C8.73291 35.5 6.51604 35.5 4.82257 34.6371C3.33296 33.8781 2.12186 32.667 1.36286 31.1774C0.5 29.484 0.5 27.2671 0.5 22.8334V13.1666Z" fill="url(#paint2_radial_96_410)"/>
<path d="M0.5 13.1666C0.5 8.73291 0.5 6.51604 1.36286 4.82257C2.12186 3.33296 3.33296 2.12186 4.82257 1.36286C6.51604 0.5 8.73291 0.5 13.1666 0.5H22.8334C27.2671 0.5 29.484 0.5 31.1774 1.36286C32.667 2.12186 33.8781 3.33296 34.6371 4.82257C35.5 6.51604 35.5 8.73291 35.5 13.1666V22.8334C35.5 27.2671 35.5 29.484 34.6371 31.1774C33.8781 32.667 32.667 33.8781 31.1774 34.6371C29.484 35.5 27.2671 35.5 22.8334 35.5H13.1666C8.73291 35.5 6.51604 35.5 4.82257 34.6371C3.33296 33.8781 2.12186 32.667 1.36286 31.1774C0.5 29.484 0.5 27.2671 0.5 22.8334V13.1666Z" fill="url(#paint3_radial_96_410)"/>
<path d="M0.5 13.1666C0.5 8.73291 0.5 6.51604 1.36286 4.82257C2.12186 3.33296 3.33296 2.12186 4.82257 1.36286C6.51604 0.5 8.73291 0.5 13.1666 0.5H22.8334C27.2671 0.5 29.484 0.5 31.1774 1.36286C32.667 2.12186 33.8781 3.33296 34.6371 4.82257C35.5 6.51604 35.5 8.73291 35.5 13.1666V22.8334C35.5 27.2671 35.5 29.484 34.6371 31.1774C33.8781 32.667 32.667 33.8781 31.1774 34.6371C29.484 35.5 27.2671 35.5 22.8334 35.5H13.1666C8.73291 35.5 6.51604 35.5 4.82257 34.6371C3.33296 33.8781 2.12186 32.667 1.36286 31.1774C0.5 29.484 0.5 27.2671 0.5 22.8334V13.1666Z" fill="url(#paint4_radial_96_410)"/>
<path d="M0.5 13.1666C0.5 8.73291 0.5 6.51604 1.36286 4.82257C2.12186 3.33296 3.33296 2.12186 4.82257 1.36286C6.51604 0.5 8.73291 0.5 13.1666 0.5H22.8334C27.2671 0.5 29.484 0.5 31.1774 1.36286C32.667 2.12186 33.8781 3.33296 34.6371 4.82257C35.5 6.51604 35.5 8.73291 35.5 13.1666V22.8334C35.5 27.2671 35.5 29.484 34.6371 31.1774C33.8781 32.667 32.667 33.8781 31.1774 34.6371C29.484 35.5 27.2671 35.5 22.8334 35.5H13.1666C8.73291 35.5 6.51604 35.5 4.82257 34.6371C3.33296 33.8781 2.12186 32.667 1.36286 31.1774C0.5 29.484 0.5 27.2671 0.5 22.8334V13.1666Z" fill="url(#paint5_radial_96_410)"/>
<path d="M0.5 13.1666C0.5 8.73291 0.5 6.51604 1.36286 4.82257C2.12186 3.33296 3.33296 2.12186 4.82257 1.36286C6.51604 0.5 8.73291 0.5 13.1666 0.5H22.8334C27.2671 0.5 29.484 0.5 31.1774 1.36286C32.667 2.12186 33.8781 3.33296 34.6371 4.82257C35.5 6.51604 35.5 8.73291 35.5 13.1666V22.8334C35.5 27.2671 35.5 29.484 34.6371 31.1774C33.8781 32.667 32.667 33.8781 31.1774 34.6371C29.484 35.5 27.2671 35.5 22.8334 35.5H13.1666C8.73291 35.5 6.51604 35.5 4.82257 34.6371C3.33296 33.8781 2.12186 32.667 1.36286 31.1774C0.5 29.484 0.5 27.2671 0.5 22.8334V13.1666Z" fill="url(#paint6_radial_96_410)"/>
<path d="M28.5879 11.045C26.7358 8.9959 24.1254 7.8442 21.4129 7.85915C18.7586 7.85915 16.0608 9.02583 14.3254 10.9104C14.0045 10.8805 13.6836 10.8506 13.3774 10.8506C8.17117 10.8506 4.94824 15.3378 4.94824 19.4959C4.96283 21.7395 5.80867 23.8934 7.31074 25.5386C8.88574 27.2588 11.0733 28.231 13.3774 28.231H21.4129C26.867 28.231 31.3004 23.6391 31.3004 18.0151C31.2711 15.4275 30.3086 12.9446 28.5879 11.045ZM13.217 26.7651C9.35242 26.7651 6.23158 23.5494 6.23158 19.5856C6.23158 15.6519 9.33783 12.451 13.1879 12.4211C14.8941 12.4211 16.6879 12.9895 17.8254 14.231L20.7566 17.3121C21.2379 17.8208 21.2233 18.6284 20.7274 19.122C20.2316 19.6156 19.4441 19.6006 18.9629 19.092L16.1045 16.0708C14.2379 14.4254 11.4233 14.6348 9.81908 16.5494C9.11908 17.372 8.73992 18.434 8.73992 19.5259C8.73992 22.0386 10.8254 24.1626 13.2899 24.1626H13.8586C14.6754 25.3293 16.9649 26.7651 16.9649 26.7651H13.217ZM27.5379 24.1925C25.9774 25.8678 23.8191 26.81 21.5586 26.825C19.4149 26.825 17.2274 25.8378 15.5504 24.1326L11.7295 20.184C11.2483 19.6754 11.2629 18.8678 11.7441 18.3741C11.9774 18.1348 12.2836 18.0151 12.6191 18.0151C12.9545 18.0151 13.2754 18.1498 13.5086 18.404L17.3149 22.3079C18.5254 23.5494 20.0711 24.2524 21.5586 24.2524C23.1483 24.2524 24.6649 23.5793 25.7586 22.3826C26.8816 21.201 27.5086 19.6156 27.5086 17.9703C27.5086 14.5899 24.8254 11.8528 21.5295 11.8378C20.2754 11.8378 19.2399 12.092 18.2191 12.825C17.6411 12.2323 16.3961 11.6434 15.8274 11.5236C17.4024 10.013 19.3711 9.2801 21.5295 9.2801C26.2108 9.2801 29.9879 13.169 30.0024 17.9703C30.0024 20.2886 29.1274 22.5323 27.5379 24.1925Z" fill="white"/>
<defs>
<radialGradient id="paint0_radial_96_410" cx="0" cy="0" r="1" gradientUnits="userSpaceOnUse" gradientTransform="translate(29.5938 30.4145) rotate(46.87) scale(20.9048 21.4123)">
<stop stop-color="#68E048"/>
<stop offset="1" stop-color="#5CE049" stop-opacity="0"/>
</radialGradient>
<radialGradient id="paint1_radial_96_410" cx="0" cy="0" r="1" gradientUnits="userSpaceOnUse" gradientTransform="translate(6.04166 30.265) rotate(137.364) scale(21.3098 21.9087)">
<stop stop-color="#308CFE"/>
<stop offset="1" stop-color="#2F8BFF" stop-opacity="0"/>
</radialGradient>
<radialGradient id="paint2_radial_96_410" cx="0" cy="0" r="1" gradientUnits="userSpaceOnUse" gradientTransform="translate(28.9375 20.094) rotate(7.9001) scale(12.5146 13.1524)">
<stop stop-color="#FDD511"/>
<stop offset="1" stop-color="#FDD20D" stop-opacity="0"/>
</radialGradient>
<radialGradient id="paint3_radial_96_410" cx="0" cy="0" r="1" gradientUnits="userSpaceOnUse" gradientTransform="translate(6.47916 13.1389) rotate(-127.134) scale(18.4803 18.8301)">
<stop stop-color="#F928C2"/>
<stop offset="1" stop-color="#F922BC" stop-opacity="0"/>
</radialGradient>
<radialGradient id="paint4_radial_96_410" cx="0" cy="0" r="1" gradientUnits="userSpaceOnUse" gradientTransform="translate(20.3334 6.33334) rotate(-63.404) scale(18.5672 18.7605)">
<stop stop-color="#F90700"/>
<stop offset="1" stop-color="#F90700" stop-opacity="0"/>
</radialGradient>
<radialGradient id="paint5_radial_96_410" cx="0" cy="0" r="1" gradientUnits="userSpaceOnUse" gradientTransform="translate(33.6041 5.58548) rotate(-65.6935) scale(11.1602 11.2584)">
<stop stop-color="#FB4200"/>
<stop offset="1" stop-color="#FB4300" stop-opacity="0"/>
</radialGradient>
<radialGradient id="paint6_radial_96_410" cx="0" cy="0" r="1" gradientUnits="userSpaceOnUse" gradientTransform="translate(4.14584 4.76282) rotate(-133.672) scale(9.92596 10.1718)">
<stop stop-color="#FE0D88"/>
<stop offset="1" stop-color="#FE0D88" stop-opacity="0"/>
</radialGradient>
</defs>
</svg>
