<svg width="36" height="36" viewBox="0 0 36 36" fill="none" xmlns="http://www.w3.org/2000/svg">
<g clip-path="url(#clip0_96_436)">
<path d="M0.5 13.1666C0.5 8.73291 0.5 6.51604 1.36286 4.82257C2.12186 3.33296 3.33296 2.12186 4.82257 1.36286C6.51604 0.5 8.73291 0.5 13.1666 0.5H22.8334C27.2671 0.5 29.484 0.5 31.1774 1.36286C32.667 2.12186 33.8781 3.33296 34.6371 4.82257C35.5 6.51604 35.5 8.73291 35.5 13.1666V22.8334C35.5 27.2671 35.5 29.484 34.6371 31.1774C33.8781 32.667 32.667 33.8781 31.1774 34.6371C29.484 35.5 27.2671 35.5 22.8334 35.5H13.1666C8.73291 35.5 6.51604 35.5 4.82257 34.6371C3.33296 33.8781 2.12186 32.667 1.36286 31.1774C0.5 29.484 0.5 27.2671 0.5 22.8334V13.1666Z" fill="#470137"/>
<path d="M18.8081 10.7922L14.441 18.1852L19.1133 26.0356C19.2104 26.2136 19.1133 26.253 18.9725 26.253H15.6385C15.4036 26.253 15.2393 26.2445 15.1454 26.0839C14.832 25.4577 14.519 24.8356 14.2061 24.2175C13.8929 23.5996 13.5603 22.9695 13.2084 22.3271C12.8561 21.6852 12.5079 21.0351 12.1635 20.3766C11.8503 21.0189 11.5019 21.661 11.1656 22.3031C10.8289 22.9454 10.4963 23.5835 10.1678 24.2175C9.83908 24.8519 9.50254 25.482 9.15819 26.1079C9.09545 26.2524 8.98573 26.2672 8.82942 26.2672H5.61283C5.48644 26.2672 5.47119 26.1722 5.5424 26.0597L10.0738 18.426L5.65975 10.7681C5.57958 10.6589 5.64858 10.5425 5.77718 10.5514H9.08769C9.23104 10.5434 9.35773 10.5974 9.43989 10.72C9.72165 11.3622 10.0347 12.0045 10.379 12.6465C10.7231 13.2887 11.0715 13.923 11.4239 14.5489C11.7761 15.175 12.1244 15.8091 12.4218 16.4514C12.7346 15.7932 13.0516 15.1511 13.3726 14.5249C13.6934 13.8987 14.022 13.2686 14.3588 12.6345C14.6953 12.0005 15.02 11.3704 15.3331 10.7441C15.3748 10.6067 15.4743 10.5371 15.6149 10.5514H18.6906C18.8081 10.5514 18.8566 10.7117 18.8081 10.7922Z" fill="#FF61F6"/>
<path d="M25.5464 26.5656C23.4758 26.598 21.3069 25.7454 20.2167 23.8565C19.6844 22.9496 19.4183 21.8139 19.4184 20.449C19.4095 19.3437 19.6849 18.2556 20.2167 17.2944C21.5888 14.8416 24.353 13.9226 26.9787 14.1639V9.41983C26.9787 9.30769 27.0257 9.25126 27.1195 9.25126H30.0779C30.1588 9.23941 30.2303 9.31279 30.2188 9.39573V23.6277C30.2188 24.2149 30.277 24.8 30.3128 25.3856C30.3185 25.4856 30.2607 25.5846 30.1718 25.6265C28.7102 26.2518 27.1285 26.5584 25.5464 26.5656ZM26.9787 23.5795V17.0054C24.8342 16.4096 22.7522 18.043 22.7524 20.3045C22.7015 22.6426 24.717 24.258 26.9787 23.5795Z" fill="#FF61F6"/>
</g>
<defs>
<clipPath id="clip0_96_436">
<rect width="36" height="36" fill="white"/> 
</clipPath>
</defs>
</svg>
