<svg width="36" height="36" viewBox="0 0 36 36" fill="none" xmlns="http://www.w3.org/2000/svg">
<g clip-path="url(#clip0_96_420)">
<path d="M0.5 13.1666C0.5 8.73291 0.5 6.51604 1.36286 4.82257C2.12186 3.33296 3.33296 2.12186 4.82257 1.36286C6.51604 0.5 8.73291 0.5 13.1666 0.5H22.8334C27.2671 0.5 29.484 0.5 31.1774 1.36286C32.667 2.12186 33.8781 3.33296 34.6371 4.82257C35.5 6.51604 35.5 8.73291 35.5 13.1666V22.8334C35.5 27.2671 35.5 29.484 34.6371 31.1774C33.8781 32.667 32.667 33.8781 31.1774 34.6371C29.484 35.5 27.2671 35.5 22.8334 35.5H13.1666C8.73291 35.5 6.51604 35.5 4.82257 34.6371C3.33296 33.8781 2.12186 32.667 1.36286 31.1774C0.5 29.484 0.5 27.2671 0.5 22.8334V13.1666Z" fill="#001E36"/>
<path d="M8 26.1452V10.7542C8 10.6496 8.04375 10.5898 8.14584 10.5898C9.65287 10.5898 11.1593 10.5 12.6666 10.5C15.1128 10.5 17.7613 11.3364 18.6896 13.8952C18.9084 14.5235 19.025 15.1666 19.025 15.8398C19.025 17.1261 18.7334 18.188 18.15 19.0256C16.5205 21.3654 13.6963 21.329 11.1646 21.329V26.1304C11.1844 26.2725 11.0632 26.3398 10.9459 26.3398H8.175C8.05834 26.3398 8 26.2799 8 26.1452ZM11.1791 13.4765V18.5021C12.183 18.5756 13.2334 18.5836 14.1979 18.2629C15.2627 17.9556 15.8459 17.034 15.8459 15.9295C15.8754 14.9884 15.3626 14.0854 14.4896 13.7457C13.5367 13.3495 12.2077 13.3257 11.1791 13.4765Z" fill="#31A8FF"/>
<path d="M28.1209 17.5093C27.6797 17.2766 27.2097 17.1065 26.7238 17.0035C26.0995 16.8566 23.6373 16.3421 23.6363 17.6296C23.6582 18.3484 24.7992 18.7005 25.3033 18.9059C27.0732 19.5135 29.0759 20.5996 29.0365 22.783C29.0907 25.501 26.4572 26.5876 24.1998 26.5879C23.0247 26.6 21.8004 26.418 20.7249 25.9135C20.6222 25.8591 20.5562 25.743 20.5605 25.6245V23.0238C20.5489 22.9195 20.6609 22.8284 20.7484 22.9034C21.8022 23.5406 23.0512 23.8501 24.2703 23.8666C24.8084 23.8666 25.8749 23.8145 25.8669 23.0238C25.8669 22.265 24.591 21.9161 24.0824 21.7234C23.3452 21.4603 22.6462 21.0956 22.0045 20.6398C21.1078 20.0001 20.5453 18.9746 20.5605 17.8464C20.5553 15.2871 22.9794 14.1384 25.1625 14.1379C26.183 14.1294 27.279 14.205 28.229 14.6195C28.3657 14.6596 28.3939 14.8036 28.3934 14.9325V17.3648C28.402 17.5158 28.2344 17.5671 28.1209 17.5093Z" fill="#31A8FF"/>
</g>
<defs>
<clipPath id="clip0_96_420">
<rect width="36" height="36" fill="white"/>
</clipPath>
</defs>
</svg>
