<svg width="36" height="36" viewBox="0 0 36 36" fill="none" xmlns="http://www.w3.org/2000/svg">
<g clip-path="url(#clip0_96_428)">
<path d="M0.5 13.1666C0.5 8.73291 0.5 6.51604 1.36286 4.82257C2.12186 3.33296 3.33296 2.12186 4.82257 1.36286C6.51604 0.5 8.73291 0.5 13.1666 0.5H22.8334C27.2671 0.5 29.484 0.5 31.1774 1.36286C32.667 2.12186 33.8781 3.33296 34.6371 4.82257C35.5 6.51604 35.5 8.73291 35.5 13.1666V22.8334C35.5 27.2671 35.5 29.484 34.6371 31.1774C33.8781 32.667 32.667 33.8781 31.1774 34.6371C29.484 35.5 27.2671 35.5 22.8334 35.5H13.1666C8.73291 35.5 6.51604 35.5 4.82257 34.6371C3.33296 33.8781 2.12186 32.667 1.36286 31.1774C0.5 29.484 0.5 27.2671 0.5 22.8334V13.1666Z" fill="#00005B"/>
<path d="M8 25.2446V9.50995C8 9.40291 8.04388 9.34175 8.14626 9.34175C9.6578 9.34175 11.1686 9.25 12.6806 9.25C15.1339 9.25 17.7904 10.105 18.7215 12.7211C18.9409 13.3634 19.0579 14.0209 19.0579 14.709C19.0579 16.024 18.7654 17.1096 18.1802 17.966C16.546 20.358 13.7132 20.3209 11.174 20.3209V25.2293C11.1939 25.3746 11.0724 25.4434 10.9546 25.4434H8.17552C8.05851 25.4434 8 25.3823 8 25.2446ZM11.1886 12.293V17.4308C12.1955 17.506 13.249 17.5141 14.2164 17.1861C15.2844 16.8721 15.8692 15.9299 15.8692 14.8008C15.899 13.8386 15.3846 12.9154 14.509 12.5683C13.5533 12.1631 12.2204 12.1389 11.1886 12.293Z" fill="#9999FF"/>
<path d="M21.0407 13.2649H23.6077C23.7492 13.2662 23.8763 13.3684 23.9137 13.5111C24.1018 13.9477 24.125 14.4744 24.1257 14.9457C24.5659 14.4099 25.0967 13.9635 25.6917 13.6286C26.3298 13.2512 27.0532 13.0599 27.7862 13.0747C27.9079 13.0565 28.0155 13.1691 27.9982 13.2963V16.2751C27.9982 16.3902 27.9194 16.4475 27.7627 16.4475C26.6762 16.3691 24.9847 16.6375 24.1952 17.5307V25.2762C24.1952 25.424 24.1324 25.4979 24.0068 25.4979H21.2527C21.1174 25.5181 20.998 25.3909 21.0172 25.2516V16.8414C21.0172 15.7145 21.0405 14.5536 20.8759 13.4372C20.8505 13.3345 20.9445 13.239 21.0407 13.2649Z" fill="#9999FF"/>
</g>
<defs>
<clipPath id="clip0_96_428">
<rect width="36" height="36" fill="white"/>
</clipPath>
</defs>
</svg>
