<svg width="35" height="35" viewBox="0 0 35 35" fill="none" xmlns="http://www.w3.org/2000/svg">
<g clip-path="url(#clip0_96_405)">
<circle cx="17.5" cy="17.5" r="17.5" fill="url(#paint0_linear_96_405)"/>
<path d="M17.3735 29C15.6278 29 14.0626 28.5392 12.7233 27.6473C11.3989 26.7554 10.4057 25.477 9.75856 23.8419C9.38233 22.8905 9.1566 21.85 9.05125 20.6608C8.93086 19.2486 9.02115 17.8068 9.33719 16.3946C9.83381 14.1203 10.8421 12.1581 12.3169 10.523C13.7767 8.91757 15.5074 7.83243 17.4788 7.32703C18.3216 7.10405 19.1643 7 19.9619 7C20.9251 7 21.8732 7.16351 22.7761 7.49054C24.1155 7.98108 25.0335 8.82838 25.4699 10.0176C25.6806 10.5676 25.7408 11.1473 25.6806 11.8014C25.5903 12.723 25.2893 13.5405 24.7777 14.2392C24.1908 15.0419 23.4834 15.5324 22.6256 15.7405C22.4751 15.7851 22.3096 15.8 22.129 15.8C22.0538 15.8 21.9936 15.8 21.9183 15.7851C21.6625 15.7554 21.4367 15.6514 21.2863 15.4581C21.1358 15.2649 21.0756 15.0122 21.1057 14.7595C21.1508 14.4622 21.2712 14.2095 21.3916 14.0014L21.4367 13.9122C21.6775 13.4365 21.9033 12.9905 22.0237 12.5149C22.2193 11.7122 22.2193 11.1027 22.0086 10.5378C21.7829 9.94324 21.3615 9.57162 20.7294 9.42297C20.4886 9.36351 20.2479 9.33378 20.0071 9.33378C19.4653 9.33378 18.8934 9.46757 18.2915 9.73514C17.1026 10.2703 16.0943 11.1622 15.2365 12.4554C14.6496 13.3473 14.1981 14.3432 13.867 15.5027C13.6262 16.3351 13.4757 17.2122 13.3854 18.1189C13.3403 18.55 13.3102 19.0554 13.3102 19.5459C13.3252 20.9878 13.5359 22.1324 13.9874 23.1432C14.484 24.273 15.1612 25.0608 16.0792 25.5662C16.6962 25.9081 17.3885 26.0865 18.1259 26.0865C18.2463 26.0865 18.3818 26.0865 18.5172 26.0716C20.0823 25.9527 21.4668 25.2541 22.731 23.9459C23.3781 23.277 23.9199 22.5041 24.3864 21.5824C24.4616 21.4486 24.5369 21.3 24.6573 21.1811C24.8078 21.0176 25.0034 20.9284 25.2141 20.9284C25.4699 20.9284 25.6957 21.0622 25.8462 21.3C26.0268 21.5973 26.0117 21.9243 25.9816 22.1324C25.8913 22.7419 25.6656 23.3365 25.2893 24.0351C24.2058 25.9527 22.7159 27.3649 20.8649 28.2419C19.9168 28.6878 18.8934 28.9405 17.84 28.9851C17.6744 29 17.524 29 17.3735 29Z" stroke="white" stroke-miterlimit="10" stroke-linejoin="round"/>
</g>
<defs>
<linearGradient id="paint0_linear_96_405" x1="17.5" y1="0" x2="17.5" y2="35" gradientUnits="userSpaceOnUse">
<stop stop-color="#01C3CC"/>
<stop offset="0.438113" stop-color="#476EDC"/>
<stop offset="1" stop-color="#7B2AE8"/>
</linearGradient>
<clipPath id="clip0_96_405">
<rect width="35" height="35" fill="white"/>
</clipPath>
</defs>
</svg>
