<svg width="34" height="34" viewBox="0 0 34 34" fill="none" xmlns="http://www.w3.org/2000/svg">
<g clip-path="url(#clip0_89_2)">
<path d="M26.0312 0H7.96875C3.56773 0 0 3.56773 0 7.96875V26.0312C0 30.4323 3.56773 34 7.96875 34H26.0312C30.4323 34 34 30.4323 34 26.0312V7.96875C34 3.56773 30.4323 0 26.0312 0Z" fill="#242938"/>
<path d="M8.37035 10.6747L16.926 15.53L25.5013 10.6334L20.9666 8.06L16.9719 10.3391L12.9538 8.03375L8.36941 10.6756L8.37035 10.6747ZM26.7557 12.8778L18.1832 17.7481V27.4391L22.8369 24.7494V20.6328L26.7557 18.4522V12.8778ZM7.14503 12.8778V18.4513L11.0638 20.63V24.7494L15.7175 27.4391V17.7481L7.14503 12.8778ZM4.6991 9.97063L16.9475 2.94125L29.196 9.97063L29.301 23.9703L16.9475 31.0578L4.6991 24.0284V9.97063Z" fill="black"/>
</g>
<defs>
<clipPath id="clip0_89_2">
<rect width="34" height="34" fill="white"/>
</clipPath>
</defs>
</svg>
