<svg width="34" height="34" viewBox="0 0 34 34" fill="none" xmlns="http://www.w3.org/2000/svg">
<g clip-path="url(#clip0_89_2)">
<path d="M26.0312 0H7.96875C3.56773 0 0 3.56773 0 7.96875V26.0312C0 30.4323 3.56773 34 7.96875 34H26.0312C30.4323 34 34 30.4323 34 26.0312V7.96875C34 3.56773 30.4323 0 26.0312 0Z" fill="#242938"/>
<path d="M15.8899 18.9591L20.8975 12.9913L19.8662 12.1259L14.8586 18.0937L15.8899 18.9591Z" fill="black"/>
<path d="M20.8975 12.9913L25.905 7.02348L24.8738 6.15814L19.8662 12.1259L20.8975 12.9913Z" fill="#0019FF"/>
<path d="M20.9639 13.0629L26.0748 7.18342L25.0588 6.30021L19.9479 12.1797L20.9639 13.0629Z" fill="#0015FF"/>
<path d="M21.0289 13.1357L26.2417 7.3463L25.2413 6.4455L20.0285 12.2349L21.0289 13.1357Z" fill="#0011FF"/>
<path d="M21.0926 13.2096L26.4056 7.51206L25.4211 6.59394L20.108 12.2915L21.0926 13.2096Z" fill="#000CFF"/>
<path d="M21.1551 13.2846L26.5668 7.68066L25.5984 6.74549L20.1867 12.3494L21.1551 13.2846Z" fill="#0008FF"/>
<path d="M21.2163 13.3607L26.725 7.85205L25.773 6.90012L20.2644 12.4088L21.2163 13.3607Z" fill="#0004FF"/>
<path d="M21.2761 13.4378L26.88 8.02617L25.9448 7.05777L20.3409 12.4694L21.2761 13.4378Z" fill="#0000FF"/>
<path d="M21.3346 13.516L27.0321 8.20296L26.114 7.2184L20.4164 12.5314L21.3346 13.516Z" fill="#0500FF"/>
<path d="M21.3916 13.5952L27.181 8.38239L26.2802 7.38195L20.4908 12.5947L21.3916 13.5952Z" fill="#0900FF"/>
<path d="M21.4473 13.6754L27.3268 8.5644L26.4436 7.54839L20.5641 12.6593L21.4473 13.6754Z" fill="#0D00FF"/>
<path d="M21.5016 13.7565L27.4694 8.74891L26.604 7.71764L20.6362 12.7252L21.5016 13.7565Z" fill="#1100FF"/>
<path d="M21.5545 13.8385L27.6088 8.93589L26.7616 7.88967L20.7073 12.7923L21.5545 13.8385Z" fill="#1600FF"/>
<path d="M21.606 13.9215L27.7449 9.12527L26.9161 8.06443L20.7771 12.8607L21.606 13.9215Z" fill="#1A00FF"/>
<path d="M21.6559 14.0054L27.8776 9.31699L27.0674 8.24185L20.8457 12.9302L21.6559 14.0054Z" fill="#1E00FF"/>
<path d="M21.7044 14.0901L28.007 9.51101L27.2157 8.42189L20.9131 13.001L21.7044 14.0901Z" fill="#2200FF"/>
<path d="M21.7514 14.1756L28.1329 9.70725L27.3608 8.60449L20.9793 13.0729L21.7514 14.1756Z" fill="#2700FF"/>
<path d="M21.7968 14.262L28.2554 9.90566L27.5026 8.78959L21.044 13.1459L21.7968 14.262Z" fill="#2B00FF"/>
<path d="M21.8409 14.3491L28.3745 10.1062L27.6413 8.97714L21.1077 13.2201L21.8409 14.3491Z" fill="#2F00FF"/>
<path d="M21.8834 14.437L28.49 10.3087L27.7766 9.16708L21.17 13.2954L21.8834 14.437Z" fill="#3300FF"/>
<path d="M21.9243 14.5256L28.6019 10.5133L27.9086 9.35935L21.2309 13.3717L21.9243 14.5256Z" fill="#3800FF"/>
<path d="M21.9636 14.615L28.7103 10.7198L28.0372 9.5539L21.2905 13.4491L21.9636 14.615Z" fill="#3C00FF"/>
<path d="M22.0014 14.705L28.8151 10.9281L28.1624 9.75067L21.3488 13.5275L22.0014 14.705Z" fill="#4000FF"/>
<path d="M22.0377 14.7956L28.9163 11.1382L28.2842 9.94959L21.4057 13.607L22.0377 14.7956Z" fill="#4400FF"/>
<path d="M22.0724 14.8869L29.0137 11.3501L28.4025 10.1506L21.4612 13.6874L22.0724 14.8869Z" fill="#4800FF"/>
<path d="M22.1055 14.9787L29.1074 11.5636L28.5173 10.3537L21.5153 13.7687L22.1055 14.9787Z" fill="#4D00FF"/>
<path d="M22.1369 15.0711L29.1974 11.7788L28.6284 10.5587L21.568 13.851L22.1369 15.0711Z" fill="#5100FF"/>
<path d="M22.1667 15.1641L29.2836 11.9954L28.736 10.7656L21.6191 13.9342L22.1667 15.1641Z" fill="#5500FF"/>
<path d="M22.1949 15.2575L29.366 12.2136L28.84 10.9744L21.6689 14.0183L22.1949 15.2575Z" fill="#5900FF"/>
<path d="M22.2215 15.3515L29.4446 12.4331L28.9403 11.1849L21.7171 14.1033L22.2215 15.3515Z" fill="#5E00FF"/>
<path d="M22.2463 15.4459L29.5193 12.654L29.0368 11.3972L21.7639 14.189L22.2463 15.4459Z" fill="#6200FF"/>
<path d="M22.2696 15.5407L29.5902 12.8762L29.1298 11.6111L21.8092 14.2756L22.2696 15.5407Z" fill="#6600FF"/>
<path d="M22.2913 15.6358L29.6572 13.0995L29.2189 11.8267L21.853 14.363L22.2913 15.6358Z" fill="#6A00FF"/>
<path d="M22.3112 15.7314L29.7203 13.324L29.3043 12.0437L21.8952 14.4511L22.3112 15.7314Z" fill="#6F00FF"/>
<path d="M22.3294 15.8273L29.7794 13.5496L29.3858 12.2622L21.9358 14.5399L22.3294 15.8273Z" fill="#7300FF"/>
<path d="M22.3461 15.9235L29.8347 13.7762L29.4636 12.4821L21.975 14.6294L22.3461 15.9235Z" fill="#7700FF"/>
<path d="M22.3609 16.02L29.8859 14.0037L29.5374 12.7033L22.0125 14.7196L22.3609 16.02Z" fill="#7B00FF"/>
<path d="M22.3742 16.1167L29.9332 14.232L29.6075 12.9258L22.0486 14.8104L22.3742 16.1167Z" fill="#8000FF"/>
<path d="M22.3857 16.2136L29.9764 14.4611L29.6736 13.1494L22.0829 14.9019L22.3857 16.2136Z" fill="#8400FF"/>
<path d="M22.3956 16.3107L30.0157 14.691L29.7359 13.3742L22.1157 14.9939L22.3956 16.3107Z" fill="#8800FF"/>
<path d="M22.4038 16.408L30.051 14.9215L29.7942 13.6L22.1469 15.0865L22.4038 16.408Z" fill="#8C00FF"/>
<path d="M22.4102 16.5054L30.0823 15.1526L29.8485 13.8268L22.1765 15.1796L22.4102 16.5054Z" fill="#9100FF"/>
<path d="M22.4149 16.6029L30.1094 15.3842L29.8988 14.0546L22.2043 15.2732L22.4149 16.6029Z" fill="#9500FF"/>
<path d="M22.418 16.7005L30.1326 15.6163L29.9452 14.2831L22.2306 15.3673L22.418 16.7005Z" fill="#9900FF"/>
<path d="M22.4193 16.7981L30.1516 15.8487L29.9875 14.5125L22.2552 15.4619L22.4193 16.7981Z" fill="#9D00FF"/>
<path d="M22.419 16.8957L30.1667 16.0814L30.026 14.7425L22.2783 15.5568L22.419 16.8957Z" fill="#A100FF"/>
<path d="M22.4169 16.9933L30.1776 16.3143L30.0603 14.9732L22.2995 15.6522L22.4169 16.9933Z" fill="#A600FF"/>
<path d="M22.4132 17.0908L30.1846 16.5474L30.0907 15.2045L22.3192 15.7479L22.4132 17.0908Z" fill="#AA00FF"/>
<path d="M22.4077 17.1883L30.1874 16.7806L30.1169 15.4362L22.3372 15.8439L22.4077 17.1883Z" fill="#AE00FF"/>
<path d="M22.4005 17.2856L30.1862 17.0138L30.1392 15.6684L22.3535 15.9402L22.4005 17.2856Z" fill="#B200FF"/>
<path d="M22.3917 17.3829L30.1809 17.2469L30.1574 15.9009L22.3682 16.0368L22.3917 17.3829Z" fill="#B700FF"/>
<path d="M22.3811 17.4799H30.1715V16.1337H22.3811V17.4799Z" fill="#BB00FF"/>
<path d="M22.3689 17.5767L30.1581 17.7127L30.1816 16.3667L22.3924 16.2307L22.3689 17.5767Z" fill="#BF00FF"/>
<path d="M22.3549 17.6734L30.1405 17.9452L30.1875 16.5998L22.4018 16.3279L22.3549 17.6734Z" fill="#C300FF"/>
<path d="M22.3393 17.7697L30.119 18.1774L30.1895 16.8331L22.4098 16.4253L22.3393 17.7697Z" fill="#C800FF"/>
<path d="M22.322 17.8658L30.0934 18.4092L30.1873 17.0663L22.4159 16.5228L22.322 17.8658Z" fill="#CC00FF"/>
<path d="M22.303 17.9615L30.0637 18.6405L30.1811 17.2994L22.4203 16.6204L22.303 17.9615Z" fill="#D000FF"/>
<path d="M22.2823 18.0569L30.03 18.8713L30.1707 17.5324L22.423 16.7181L22.2823 18.0569Z" fill="#D400FF"/>
<path d="M22.26 18.152L29.9923 19.1014L30.1564 17.7652L22.424 16.8158L22.26 18.152Z" fill="#D900FF"/>
<path d="M22.2361 18.2466L29.9507 19.3308L30.138 17.9977L22.4235 16.9135L22.2361 18.2466Z" fill="#DD00FF"/>
<path d="M22.2104 18.3408L29.9049 19.5595L30.1155 18.2298L22.421 17.0112L22.2104 18.3408Z" fill="#E100FF"/>
<path d="M22.1832 18.4345L29.8552 19.7873L30.089 18.4616L22.417 17.1088L22.1832 18.4345Z" fill="#E500FF"/>
<path d="M22.1544 18.5278L29.8016 20.0143L30.0585 18.6928L22.4112 17.2063L22.1544 18.5278Z" fill="#EA00FF"/>
<path d="M22.1239 18.6205L29.744 20.2402L30.0239 18.9234L22.4038 17.3037L22.1239 18.6205Z" fill="#EE00FF"/>
<path d="M22.0918 18.7127L29.6825 20.4651L29.9853 19.1534L22.3946 17.401L22.0918 18.7127Z" fill="#F200FF"/>
<path d="M22.058 18.8043L29.6169 20.689L29.9426 19.3827L22.3836 17.4981L22.058 18.8043Z" fill="#F600FF"/>
<path d="M22.0227 18.8953L29.5476 20.9116L29.896 19.6112L22.3711 17.5949L22.0227 18.8953Z" fill="#FA00FF"/>
<path d="M21.9858 18.9857L29.4744 21.133L29.8454 19.8389L22.3568 17.6916L21.9858 18.9857Z" fill="#FF00FF"/>
<path d="M21.9473 19.0754L29.3973 21.3531L29.7909 20.0657L22.3409 17.788L21.9473 19.0754Z" fill="#FF00FB"/>
<path d="M21.9073 19.1644L29.3164 21.5718L29.7324 20.2914L22.3233 17.8841L21.9073 19.1644Z" fill="#FF00F7"/>
<path d="M21.8657 19.2527L29.2317 21.789L29.67 20.5162L22.304 17.9799L21.8657 19.2527Z" fill="#FF00F3"/>
<path d="M21.8226 19.3403L29.1432 22.0048L29.6036 20.7397L22.283 18.0753L21.8226 19.3403Z" fill="#FF00EE"/>
<path d="M21.7779 19.4271L29.0509 22.219L29.5333 20.9621L22.2604 18.1703L21.7779 19.4271Z" fill="#FF00EA"/>
<path d="M21.7318 19.5132L28.955 22.4315L29.4593 21.1833L22.2361 18.265L21.7318 19.5132Z" fill="#FF00E6"/>
<path d="M21.6841 19.5984L28.8552 22.6423L29.3812 21.4031L22.2101 18.3591L21.6841 19.5984Z" fill="#FF00E2"/>
<path d="M21.6351 19.6827L28.752 22.8513L29.2995 21.6215L22.1826 18.4529L21.6351 19.6827Z" fill="#FF00DD"/>
<path d="M21.5844 19.7662L28.6449 23.0586L29.2138 21.8385L22.1533 18.5461L21.5844 19.7662Z" fill="#FF00D9"/>
<path d="M21.5325 19.8488L28.5344 23.2639L29.1246 22.0539L22.1226 18.6388L21.5325 19.8488Z" fill="#FF00D5"/>
<path d="M21.479 19.9305L28.4203 23.4672L29.0315 22.2677L22.0902 18.731L21.479 19.9305Z" fill="#FF00D1"/>
<path d="M21.4241 20.0112L28.3026 23.6686L28.9346 22.4799L22.0561 18.8225L21.4241 20.0112Z" fill="#FF00CC"/>
<path d="M21.3678 20.0909L28.1814 23.8678L28.8341 22.6904L22.0204 18.9135L21.3678 20.0909Z" fill="#FF00C8"/>
<path d="M21.3101 20.1697L28.0568 24.0649L28.7299 22.899L21.9832 19.0038L21.3101 20.1697Z" fill="#FF00C4"/>
<path d="M21.251 20.2475L27.9287 24.2598L28.6221 23.1059L21.9444 19.0935L21.251 20.2475Z" fill="#FF00C0"/>
<path d="M21.1907 20.3242L27.7974 24.4524L28.5108 23.3108L21.9041 19.1825L21.1907 20.3242Z" fill="#FF00BB"/>
<path d="M21.129 20.3998L27.6626 24.6427L28.3958 23.5137L21.8622 19.2707L21.129 20.3998Z" fill="#FF00B7"/>
<path d="M21.066 20.4743L27.5245 24.8307L28.2773 23.7146L21.8188 19.3583L21.066 20.4743Z" fill="#FF00B3"/>
<path d="M21.0017 20.5478L27.3832 25.0162L28.1553 23.9134L21.7738 19.445L21.0017 20.5478Z" fill="#FF00AF"/>
<path d="M20.9361 20.6201L27.2386 25.1992L28.0299 24.11L21.7274 19.531L20.9361 20.6201Z" fill="#FF00AB"/>
<path d="M20.8693 20.6912L27.0909 25.3796L27.9011 24.3045L21.6794 19.6161L20.8693 20.6912Z" fill="#FF00A6"/>
<path d="M20.8011 20.7612L26.9401 25.5574L27.7689 24.4966L21.63 19.7003L20.8011 20.7612Z" fill="#FF00A2"/>
<path d="M20.7319 20.83L26.7861 25.7326L27.6333 24.6864L21.5791 19.7837L20.7319 20.83Z" fill="#FF009E"/>
<path d="M20.6615 20.8975L26.6293 25.9051L27.4946 24.8738L21.5268 19.8662L20.6615 20.8975Z" fill="#FF009A"/>
<path d="M20.5898 20.9638L26.4692 26.0748L27.3524 25.0588L21.473 19.9478L20.5898 20.9638Z" fill="#FF0095"/>
<path d="M20.517 21.0289L26.3064 26.2417L27.2072 25.2412L21.4178 20.0284L20.517 21.0289Z" fill="#FF0091"/>
<path d="M20.4431 21.0926L26.1406 26.4057L27.0588 25.4211L21.3612 20.1081L20.4431 21.0926Z" fill="#FF008D"/>
<path d="M20.3681 21.1551L25.972 26.5668L26.9072 25.5984L21.3033 20.1867L20.3681 21.1551Z" fill="#FF0089"/>
<path d="M20.292 21.2163L25.8007 26.7249L26.7526 25.773L21.2439 20.2643L20.292 21.2163Z" fill="#FF0084"/>
<path d="M20.2149 21.2761L25.6266 26.88L26.595 25.9449L21.1833 20.3409L20.2149 21.2761Z" fill="#FF0080"/>
<path d="M20.1367 21.3345L25.4497 27.0321L26.4343 26.114L21.1212 20.4164L20.1367 21.3345Z" fill="#FF007C"/>
<path d="M20.0575 21.3916L25.2703 27.181L26.2707 26.2802L21.0579 20.4908L20.0575 21.3916Z" fill="#FF0078"/>
<path d="M19.9773 21.4473L25.0883 27.3268L26.1043 26.4436L20.9933 20.5641L19.9773 21.4473Z" fill="#FF0073"/>
<path d="M19.8962 21.5016L24.9038 27.4694L25.9351 26.6041L20.9275 20.6363L19.8962 21.5016Z" fill="#FF006F"/>
<path d="M19.8141 21.5545L24.7168 27.6088L25.763 26.7615L20.8604 20.7073L19.8141 21.5545Z" fill="#FF006B"/>
<path d="M19.7312 21.6059L24.5275 27.7448L25.5883 26.916L20.7921 20.7771L19.7312 21.6059Z" fill="#FF0067"/>
<path d="M19.6473 21.6559L24.3357 27.8776L25.4108 27.0674L20.7225 20.8457L19.6473 21.6559Z" fill="#FF0062"/>
<path d="M19.5626 21.7044L24.1417 28.0069L25.2308 27.2156L20.6518 20.9131L19.5626 21.7044Z" fill="#FF005E"/>
<path d="M19.477 21.7514L23.9454 28.1329L25.0482 27.3607L20.5798 20.9792L19.477 21.7514Z" fill="#FF005A"/>
<path d="M19.3907 21.7969L23.7471 28.2554L24.8631 27.5026L20.5068 21.0441L19.3907 21.7969Z" fill="#FF0056"/>
<path d="M19.3036 21.8409L23.5465 28.3745L24.6756 27.6413L20.4326 21.1077L19.3036 21.8409Z" fill="#FF0052"/>
<path d="M19.2157 21.8834L23.344 28.49L24.4857 27.7766L20.3574 21.17L19.2157 21.8834Z" fill="#FF004D"/>
<path d="M19.1271 21.9243L23.1394 28.602L24.2933 27.9086L20.281 21.2309L19.1271 21.9243Z" fill="#FF0049"/>
<path d="M19.0378 21.9637L22.933 28.7104L24.0989 28.0372L20.2037 21.2906L19.0378 21.9637Z" fill="#FF0045"/>
<path d="M18.9478 22.0015L22.7246 28.8151L23.902 28.1625L20.1252 21.3488L18.9478 22.0015Z" fill="#FF0041"/>
<path d="M18.857 22.0377L22.5144 28.9162L23.7031 28.2842L20.0457 21.4057L18.857 22.0377Z" fill="#FF003C"/>
<path d="M18.7658 22.0724L22.3026 29.0137L23.5021 28.4025L19.9653 21.4612L18.7658 22.0724Z" fill="#FF0038"/>
<path d="M18.674 22.1054L22.0891 29.1074L23.2991 28.5172L19.884 21.5153L18.674 22.1054Z" fill="#FF0034"/>
<path d="M18.5815 22.1369L21.8739 29.1973L23.094 28.6284L19.8016 21.5679L18.5815 22.1369Z" fill="#FF0030"/>
<path d="M18.4886 22.1667L21.6572 29.2836L22.8871 28.736L19.7184 21.6191L18.4886 22.1667Z" fill="#FF002B"/>
<path d="M18.3951 22.1949L21.4391 29.366L22.6783 28.84L19.6343 21.6689L18.3951 22.1949Z" fill="#FF0027"/>
<path d="M18.3013 22.2214L21.2196 29.4446L22.4678 28.9403L19.5495 21.7171L18.3013 22.2214Z" fill="#FF0023"/>
<path d="M18.2068 22.2464L20.9987 29.5193L22.2555 29.0369L19.4636 21.7639L18.2068 22.2464Z" fill="#FF001F"/>
<path d="M18.112 22.2696L20.7765 29.5902L22.0415 29.1298L19.3771 21.8092L18.112 22.2696Z" fill="#FF001A"/>
<path d="M18.0169 22.2912L20.5532 29.6572L21.8261 29.2189L19.2898 21.8529L18.0169 22.2912Z" fill="#FF0016"/>
<path d="M17.9212 22.3112L20.3286 29.7203L21.609 29.3043L19.2016 21.8952L17.9212 22.3112Z" fill="#FF0012"/>
<path d="M17.8255 22.3294L20.1031 29.7794L21.3906 29.3858L19.1129 21.9359L17.8255 22.3294Z" fill="#FF000E"/>
<path d="M17.7293 22.3461L19.8766 29.8347L21.1707 29.4636L19.0233 21.975L17.7293 22.3461Z" fill="#FF0009"/>
<path d="M17.6327 22.361L19.649 29.8859L20.9494 29.5375L18.9331 22.0125L17.6327 22.361Z" fill="#FF0005"/>
<path d="M17.536 22.3742L19.4207 29.9332L20.7269 29.6075L18.8422 22.0485L17.536 22.3742Z" fill="#FF0001"/>
<path d="M17.4391 22.3857L19.1915 29.9765L20.5033 29.6736L18.7508 22.0829L17.4391 22.3857Z" fill="#FF0300"/>
<path d="M17.342 22.3956L18.9617 30.0157L20.2785 29.7358L18.6588 22.1157L17.342 22.3956Z" fill="#FF0700"/>
<path d="M17.2447 22.4037L18.7312 30.051L20.0527 29.7941L18.5662 22.1469L17.2447 22.4037Z" fill="#FF0C00"/>
<path d="M17.1473 22.4102L18.5001 30.0822L19.8259 29.8485L18.4731 22.1764L17.1473 22.4102Z" fill="#FF1000"/>
<path d="M17.0497 22.4149L18.2684 30.1094L19.5981 29.8988L18.3794 22.2043L17.0497 22.4149Z" fill="#FF1400"/>
<path d="M16.9523 22.418L18.0365 30.1326L19.3696 29.9452L18.2854 22.2306L16.9523 22.418Z" fill="#FF1800"/>
<path d="M16.8547 22.4193L17.8041 30.1517L19.1403 29.9876L18.1909 22.2553L16.8547 22.4193Z" fill="#FF1D00"/>
<path d="M16.757 22.419L17.5713 30.1667L18.9101 30.026L18.0958 22.2783L16.757 22.419Z" fill="#FF2100"/>
<path d="M16.6594 22.4169L17.3384 30.1777L18.6795 30.0603L18.0005 22.2996L16.6594 22.4169Z" fill="#FF2500"/>
<path d="M16.5619 22.4131L17.1053 30.1846L18.4483 30.0907L17.9049 22.3192L16.5619 22.4131Z" fill="#FF2900"/>
<path d="M16.4645 22.4077L16.8722 30.1874L18.2166 30.1169L17.8089 22.3372L16.4645 22.4077Z" fill="#FF2E00"/>
<path d="M16.367 22.4005L16.6389 30.1862L17.9843 30.1392L17.7124 22.3535L16.367 22.4005Z" fill="#FF3200"/>
<path d="M16.2698 22.3916L16.4058 30.1809L17.7518 30.1574L17.6158 22.3682L16.2698 22.3916Z" fill="#FF3600"/>
<path d="M16.1729 22.3811V30.1715H17.5191V22.3811H16.1729Z" fill="#FF3A00"/>
<path d="M16.0759 22.3688L15.9399 30.158L17.286 30.1815L17.4219 22.3923L16.0759 22.3688Z" fill="#FF3F00"/>
<path d="M15.9794 22.3549L15.7075 30.1405L17.0529 30.1875L17.3248 22.4019L15.9794 22.3549Z" fill="#FF4300"/>
<path d="M15.8829 22.3393L15.4752 30.119L16.8196 30.1894L17.2273 22.4097L15.8829 22.3393Z" fill="#FF4700"/>
<path d="M15.787 22.322L15.2435 30.0934L16.5865 30.1873L17.1299 22.4159L15.787 22.322Z" fill="#FF4B00"/>
<path d="M15.6912 22.303L15.0122 30.0637L16.3533 30.1811L17.0323 22.4203L15.6912 22.303Z" fill="#FF5000"/>
<path d="M15.5958 22.2823L14.7815 30.0301L16.1203 30.1708L16.9347 22.4231L15.5958 22.2823Z" fill="#FF5400"/>
<path d="M15.5007 22.26L14.5513 29.9924L15.8875 30.1564L16.8369 22.4241L15.5007 22.26Z" fill="#FF5800"/>
<path d="M15.4061 22.2361L14.3219 29.9507L15.655 30.138L16.7392 22.4234L15.4061 22.2361Z" fill="#FF5C00"/>
<path d="M15.3119 22.2105L14.0933 29.9049L15.4229 30.1155L16.6416 22.4211L15.3119 22.2105Z" fill="#FF6000"/>
<path d="M15.2181 22.1832L13.8654 29.8553L15.1911 30.089L16.5439 22.417L15.2181 22.1832Z" fill="#FF6500"/>
<path d="M15.1249 22.1543L13.6384 29.8016L14.9599 30.0585L16.4464 22.4112L15.1249 22.1543Z" fill="#FF6900"/>
<path d="M15.0322 22.1238L13.4125 29.744L14.7293 30.0239L16.349 22.4037L15.0322 22.1238Z" fill="#FF6D00"/>
<path d="M14.94 22.0917L13.1875 29.6824L14.4992 29.9853L16.2517 22.3945L14.94 22.0917Z" fill="#FF7100"/>
<path d="M14.8484 22.058L12.9637 29.617L14.27 29.9426L16.1547 22.3837L14.8484 22.058Z" fill="#FF7600"/>
<path d="M14.7574 22.0227L12.7411 29.5476L14.0414 29.896L16.0577 22.3711L14.7574 22.0227Z" fill="#FF7A00"/>
<path d="M14.667 21.9858L12.5197 29.4744L13.8137 29.8454L15.9611 22.3568L14.667 21.9858Z" fill="#FF7E00"/>
<path d="M14.5774 21.9473L12.2997 29.3973L13.5871 29.7909L15.8648 22.3409L14.5774 21.9473Z" fill="#FF8200"/>
<path d="M14.4883 21.9073L12.0809 29.3164L13.3613 29.7324L15.7686 22.3233L14.4883 21.9073Z" fill="#FF8700"/>
<path d="M14.4 21.8657L11.8636 29.2317L13.1365 29.6699L15.6728 22.304L14.4 21.8657Z" fill="#FF8B00"/>
<path d="M14.3124 21.8226L11.6479 29.1432L12.913 29.6036L15.5775 22.283L14.3124 21.8226Z" fill="#FF8F00"/>
<path d="M14.2255 21.7779L11.4337 29.0509L12.6905 29.5333L15.4824 22.2604L14.2255 21.7779Z" fill="#FF9300"/>
<path d="M14.1395 21.7318L11.2212 28.9549L12.4694 29.4592L15.3877 22.2361L14.1395 21.7318Z" fill="#FF9800"/>
<path d="M14.0543 21.6842L11.0104 28.8552L12.2496 29.3813L15.2935 22.2102L14.0543 21.6842Z" fill="#FF9C00"/>
<path d="M13.97 21.635L10.8014 28.7519L12.0312 29.2995L15.1999 22.1826L13.97 21.635Z" fill="#FFA000"/>
<path d="M13.8865 21.5845L10.5941 28.645L11.8142 29.2139L15.1066 22.1534L13.8865 21.5845Z" fill="#FFA400"/>
<path d="M13.8039 21.5324L10.3888 28.5344L11.5988 29.1245L15.0139 22.1226L13.8039 21.5324Z" fill="#FFA900"/>
<path d="M13.7222 21.479L10.1854 28.4202L11.3849 29.0314L14.9217 22.0901L13.7222 21.479Z" fill="#FFAD00"/>
<path d="M13.6415 21.4241L9.98413 28.3026L11.1728 28.9346L14.8301 22.0561L13.6415 21.4241Z" fill="#FFB100"/>
<path d="M13.5618 21.3678L9.78491 28.1814L10.9624 28.8341L14.7392 22.0205L13.5618 21.3678Z" fill="#FFB500"/>
<path d="M13.483 21.3101L9.58777 28.0568L10.7536 28.7299L14.6488 21.9832L13.483 21.3101Z" fill="#FFB900"/>
<path d="M13.4053 21.2511L9.39294 27.9288L10.5469 28.6221L14.5592 21.9444L13.4053 21.2511Z" fill="#FFBE00"/>
<path d="M13.3286 21.1907L9.20032 27.7973L10.342 28.5107L14.4703 21.9041L13.3286 21.1907Z" fill="#FFC200"/>
<path d="M13.253 21.129L9.01001 27.6626L10.1391 28.3958L14.382 21.8622L13.253 21.129Z" fill="#FFC600"/>
<path d="M13.1784 21.066L8.82202 27.5245L9.9381 28.2773L14.2944 21.8188L13.1784 21.066Z" fill="#FFCA00"/>
<path d="M13.105 21.0017L8.6366 27.3832L9.73936 28.1554L14.2078 21.7738L13.105 21.0017Z" fill="#FFCF00"/>
<path d="M13.0326 20.9361L8.45349 27.2386L9.54261 28.0299L14.1217 21.7274L13.0326 20.9361Z" fill="#FFD300"/>
<path d="M12.9614 20.8692L8.27307 27.0909L9.34822 27.9011L14.0366 21.6794L12.9614 20.8692Z" fill="#FFD700"/>
<path d="M12.8915 20.8012L8.09521 26.9401L9.15606 27.7689L13.9523 21.63L12.8915 20.8012Z" fill="#FFDB00"/>
<path d="M12.8227 20.7319L7.92004 26.7862L8.96626 27.6334L13.8689 21.5791L12.8227 20.7319Z" fill="#FFE000"/>
<path d="M12.7553 20.6614L7.74768 26.6292L8.77895 27.4946L13.7865 21.5268L12.7553 20.6614Z" fill="#FFE400"/>
<path d="M12.6888 20.5898L7.57788 26.4693L8.59389 27.3525L13.7049 21.473L12.6888 20.5898Z" fill="#FFE800"/>
<path d="M12.6238 20.517L7.41101 26.3064L8.41145 27.2072L13.6242 21.4178L12.6238 20.517Z" fill="#FFEC00"/>
<path d="M12.5601 20.4431L7.24707 26.1406L8.23164 27.0588L13.5447 21.3612L12.5601 20.4431Z" fill="#FFF100"/>
<path d="M12.4976 20.3681L7.08594 25.972L8.05433 26.9072L13.466 21.3033L12.4976 20.3681Z" fill="#FFF500"/>
<path d="M12.4364 20.292L6.92773 25.8007L7.87966 26.7526L13.3883 21.2439L12.4364 20.292Z" fill="#FFF900"/>
<path d="M12.3766 20.2149L6.77271 25.6265L7.70787 26.5949L13.3118 21.1833L12.3766 20.2149Z" fill="#FFFD00"/>
<path d="M12.3181 20.1367L6.62061 25.4497L7.53873 26.4343L13.2363 21.1213L12.3181 20.1367Z" fill="#FCFF00"/>
<path d="M12.2611 20.0575L6.47168 25.2703L7.37248 26.2708L13.1619 21.058L12.2611 20.0575Z" fill="#F8FF00"/>
<path d="M12.2054 19.9774L6.32593 25.0883L7.20913 26.1043L13.0886 20.9934L12.2054 19.9774Z" fill="#F4FF00"/>
<path d="M12.1511 19.8962L6.18335 24.9038L7.04869 25.9351L13.0165 20.9275L12.1511 19.8962Z" fill="#F0FF00"/>
<path d="M12.0982 19.8142L6.04395 24.7168L6.89115 25.763L12.9454 20.8604L12.0982 19.8142Z" fill="#ECFF00"/>
<path d="M12.0468 19.7312L5.90784 24.5274L6.73666 25.5883L12.8756 20.792L12.0468 19.7312Z" fill="#E7FF00"/>
<path d="M11.9968 19.6473L5.77515 24.3357L6.58533 25.4109L12.807 20.7225L11.9968 19.6473Z" fill="#E3FF00"/>
<path d="M11.9483 19.5626L5.64575 24.1417L6.43705 25.2308L12.7396 20.6517L11.9483 19.5626Z" fill="#DFFF00"/>
<path d="M11.9013 19.4771L5.51978 23.9454L6.29194 25.0482L12.6735 20.5798L11.9013 19.4771Z" fill="#DBFF00"/>
<path d="M11.8559 19.3907L5.39734 23.747L6.15014 24.8631L12.6087 20.5068L11.8559 19.3907Z" fill="#D6FF00"/>
<path d="M11.8118 19.3036L5.2782 23.5465L6.01141 24.6756L12.545 20.4326L11.8118 19.3036Z" fill="#D2FF00"/>
<path d="M11.7693 19.2157L5.16272 23.344L5.87611 24.4856L12.4827 20.3573L11.7693 19.2157Z" fill="#CEFF00"/>
<path d="M11.7285 19.1271L5.05078 23.1394L5.74414 24.2933L12.4218 20.281L11.7285 19.1271Z" fill="#CAFF00"/>
<path d="M11.6891 19.0377L4.94238 22.9329L5.6155 24.0988L12.3622 20.2036L11.6891 19.0377Z" fill="#C5FF00"/>
<path d="M11.6513 18.9477L4.83765 22.7246L5.49031 23.902L12.3039 20.1252L11.6513 18.9477Z" fill="#C1FF00"/>
<path d="M11.615 18.8571L4.73645 22.5145L5.36847 23.7031L12.247 20.0457L11.615 18.8571Z" fill="#BDFF00"/>
<path d="M11.5803 18.7658L4.63904 22.3026L5.25021 23.5021L12.1915 19.9653L11.5803 18.7658Z" fill="#B9FF00"/>
<path d="M11.5472 18.674L4.54529 22.0891L5.13544 23.299L12.1374 19.884L11.5472 18.674Z" fill="#B4FF00"/>
<path d="M11.5158 18.5816L4.45532 21.8739L5.02426 23.094L12.0848 19.8017L11.5158 18.5816Z" fill="#B0FF00"/>
<path d="M11.486 18.4886L4.36914 21.6573L4.9167 22.8871L12.0336 19.7185L11.486 18.4886Z" fill="#ACFF00"/>
<path d="M11.4578 18.3952L4.28674 21.4391L4.81276 22.6783L11.9839 19.6344L11.4578 18.3952Z" fill="#A8FF00"/>
<path d="M11.4313 18.3012L4.20813 21.2196L4.71244 22.4678L11.9356 19.5494L11.4313 18.3012Z" fill="#A3FF00"/>
<path d="M11.4064 18.2069L4.13342 20.9987L4.61587 22.2555L11.8888 19.4637L11.4064 18.2069Z" fill="#9FFF00"/>
<path d="M11.3831 18.112L4.0625 20.7765L4.52294 22.0416L11.8435 19.3771L11.3831 18.112Z" fill="#9BFF00"/>
<path d="M11.3614 18.0169L3.99548 20.5532L4.43377 21.826L11.7997 19.2897L11.3614 18.0169Z" fill="#97FF00"/>
<path d="M11.3415 17.9213L3.93237 20.3287L4.34838 21.609L11.7575 19.2016L11.3415 17.9213Z" fill="#93FF00"/>
<path d="M11.3233 17.8254L3.87329 20.1031L4.26689 21.3905L11.7169 19.1128L11.3233 17.8254Z" fill="#8EFF00"/>
<path d="M11.3066 17.7292L3.81799 19.8765L4.18906 21.1706L11.6777 19.0233L11.3066 17.7292Z" fill="#8AFF00"/>
<path d="M11.2918 17.6327L3.76685 19.649L4.11528 20.9494L11.6402 18.9331L11.2918 17.6327Z" fill="#86FF00"/>
<path d="M11.2785 17.536L3.71948 19.4207L4.04516 20.7269L11.6042 18.8423L11.2785 17.536Z" fill="#82FF00"/>
<path d="M11.267 17.4391L3.67627 19.1916L3.97911 20.5033L11.5698 18.7508L11.267 17.4391Z" fill="#7DFF00"/>
<path d="M11.2571 17.342L3.63696 18.9617L3.91686 20.2785L11.537 18.6588L11.2571 17.342Z" fill="#79FF00"/>
<path d="M11.2489 17.2447L3.60168 18.7312L3.85856 20.0527L11.5058 18.5662L11.2489 17.2447Z" fill="#75FF00"/>
<path d="M11.2425 17.1473L3.57043 18.5001L3.8042 19.8259L11.4762 18.4731L11.2425 17.1473Z" fill="#71FF00"/>
<path d="M11.2378 17.0498L3.54333 18.2685L3.75393 19.5981L11.4484 18.3795L11.2378 17.0498Z" fill="#6CFF00"/>
<path d="M11.2347 16.9522L3.52014 18.0364L3.7075 19.3696L11.4221 18.2854L11.2347 16.9522Z" fill="#68FF00"/>
<path d="M11.2334 16.8546L3.5011 17.804L3.66516 19.1402L11.3975 18.1908L11.2334 16.8546Z" fill="#64FF00"/>
<path d="M11.2337 16.757L3.48596 17.5713L3.62668 18.9102L11.3744 18.0959L11.2337 16.757Z" fill="#60FF00"/>
<path d="M11.2358 16.6594L3.4751 17.3384L3.59243 18.6795L11.3532 18.0005L11.2358 16.6594Z" fill="#5BFF00"/>
<path d="M11.2396 16.5619L3.46814 17.1053L3.56205 18.4483L11.3335 17.9048L11.2396 16.5619Z" fill="#57FF00"/>
<path d="M11.2451 16.4644L3.46533 16.8721L3.53579 18.2165L11.3155 17.8088L11.2451 16.4644Z" fill="#53FF00"/>
<path d="M11.2522 16.3671L3.46655 16.6389L3.51354 17.9843L11.2992 17.7125L11.2522 16.3671Z" fill="#4FFF00"/>
<path d="M11.261 16.2698L3.4718 16.4058L3.4953 17.7518L11.2845 17.6159L11.261 16.2698Z" fill="#4AFF00"/>
<path d="M11.2716 16.1728H3.4812V17.519H11.2716V16.1728Z" fill="#46FF00"/>
<path d="M11.2838 16.076L3.49463 15.94L3.47113 17.286L11.2603 17.422L11.2838 16.076Z" fill="#42FF00"/>
<path d="M11.2979 15.9793L3.51221 15.7075L3.46522 17.0529L11.2509 17.3248L11.2979 15.9793Z" fill="#3EFF00"/>
<path d="M11.3134 15.883L3.53369 15.4753L3.46324 16.8197L11.243 17.2274L11.3134 15.883Z" fill="#3AFF00"/>
<path d="M11.3307 15.7869L3.55933 15.2435L3.46542 16.5864L11.2368 17.1299L11.3307 15.7869Z" fill="#35FF00"/>
<path d="M11.3497 15.6912L3.58899 15.0122L3.47166 16.3533L11.2324 17.0323L11.3497 15.6912Z" fill="#31FF00"/>
<path d="M11.3704 15.5958L3.62268 14.7814L3.48196 16.1203L11.2297 16.9346L11.3704 15.5958Z" fill="#2DFF00"/>
<path d="M11.3926 15.5007L3.66028 14.5513L3.49621 15.8875L11.2285 16.8369L11.3926 15.5007Z" fill="#29FF00"/>
<path d="M11.4166 15.4061L3.70203 14.3219L3.51467 15.655L11.2292 16.7392L11.4166 15.4061Z" fill="#24FF00"/>
<path d="M11.4423 15.3119L3.7478 14.0932L3.53721 15.4229L11.2317 16.6416L11.4423 15.3119Z" fill="#20FF00"/>
<path d="M11.4695 15.2182L3.79749 13.8654L3.56372 15.1912L11.2358 16.5439L11.4695 15.2182Z" fill="#1CFF00"/>
<path d="M11.4983 15.1249L3.85107 13.6384L3.5942 14.9599L11.2415 16.4464L11.4983 15.1249Z" fill="#18FF00"/>
<path d="M11.5288 15.0322L3.90869 13.4125L3.62879 14.7293L11.249 16.349L11.5288 15.0322Z" fill="#13FF00"/>
<path d="M11.5609 14.94L3.97021 13.1876L3.66738 14.4993L11.2581 16.2517L11.5609 14.94Z" fill="#0FFF00"/>
<path d="M11.5948 14.8484L4.03577 12.9637L3.71008 14.27L11.2691 16.1546L11.5948 14.8484Z" fill="#0BFF00"/>
<path d="M11.63 14.7574L4.1051 12.7411L3.75667 14.0415L11.2816 16.0578L11.63 14.7574Z" fill="#07FF00"/>
<path d="M11.667 14.667L4.17834 12.5197L3.80727 13.8138L11.2959 15.9611L11.667 14.667Z" fill="#02FF00"/>
<path d="M11.7054 14.5773L4.25537 12.2996L3.86177 13.587L11.3118 15.8647L11.7054 14.5773Z" fill="#00FF02"/>
<path d="M11.7454 14.4883L4.3363 12.0809L3.9203 13.3613L11.3294 15.7686L11.7454 14.4883Z" fill="#00FF06"/>
<path d="M11.787 14.4L4.42102 11.8637L3.98273 13.1365L11.3487 15.6729L11.787 14.4Z" fill="#00FF0A"/>
<path d="M11.8301 14.3124L4.50952 11.6479L4.04908 12.913L11.3697 15.5774L11.8301 14.3124Z" fill="#00FF0F"/>
<path d="M11.8748 14.2256L4.60181 11.4337L4.11936 12.6906L11.3923 15.4824L11.8748 14.2256Z" fill="#00FF13"/>
<path d="M11.9209 14.1396L4.69775 11.2212L4.19345 12.4694L11.4166 15.3878L11.9209 14.1396Z" fill="#00FF17"/>
<path d="M11.9686 14.0543L4.79749 11.0104L4.27147 12.2496L11.4426 15.2936L11.9686 14.0543Z" fill="#00FF1B"/>
<path d="M12.0176 13.97L4.90076 10.8014L4.3532 12.0312L11.4701 15.1998L12.0176 13.97Z" fill="#00FF1F"/>
<path d="M12.0683 13.8865L5.00781 10.5941L4.43887 11.8142L11.4994 15.1066L12.0683 13.8865Z" fill="#00FF24"/>
<path d="M12.1202 13.8039L5.11829 10.3888L4.52814 11.5988L11.5301 15.0139L12.1202 13.8039Z" fill="#00FF28"/>
<path d="M12.1737 13.7222L5.23242 10.1855L4.62125 11.385L11.5625 14.9217L12.1737 13.7222Z" fill="#00FF2C"/>
<path d="M12.2286 13.6415L5.3501 9.98415L4.71808 11.1728L11.5966 14.8302L12.2286 13.6415Z" fill="#00FF30"/>
<path d="M12.2849 13.5618L5.47131 9.7849L4.81865 10.9623L11.6323 14.7392L12.2849 13.5618Z" fill="#00FF35"/>
<path d="M12.3426 13.483L5.59595 9.5878L4.92283 10.7537L11.6695 14.6489L12.3426 13.483Z" fill="#00FF39"/>
<path d="M12.4017 13.4052L5.724 9.3929L5.03064 10.5468L11.7083 14.5592L12.4017 13.4052Z" fill="#00FF3D"/>
<path d="M12.462 13.3286L5.85535 9.20027L5.14195 10.3419L11.7486 14.4702L12.462 13.3286Z" fill="#00FF41"/>
<path d="M12.5237 13.2529L5.99011 9.00996L5.2569 10.139L11.7905 14.382L12.5237 13.2529Z" fill="#00FF46"/>
<path d="M12.5867 13.1784L6.12817 8.82203L5.37537 9.9381L11.8339 14.2944L12.5867 13.1784Z" fill="#00FF4A"/>
<path d="M12.651 13.1049L6.26953 8.63654L5.49737 9.73931L11.8789 14.2077L12.651 13.1049Z" fill="#00FF4E"/>
<path d="M12.7166 13.0326L6.41406 8.45355L5.62277 9.54267L11.9253 14.1218L12.7166 13.0326Z" fill="#00FF52"/>
<path d="M12.7835 12.9615L6.56177 8.27311L5.75159 9.34826L11.9733 14.0366L12.7835 12.9615Z" fill="#00FF57"/>
<path d="M12.8516 12.8915L6.71265 8.09526L5.88382 9.1561L12.0227 13.9523L12.8516 12.8915Z" fill="#00FF5B"/>
<path d="M12.9209 12.8227L6.86658 7.92009L6.01937 8.96631L12.0736 13.869L12.9209 12.8227Z" fill="#00FF5F"/>
<path d="M12.9912 12.7552L7.02344 7.74762L6.1581 8.77889L12.1259 13.7865L12.9912 12.7552Z" fill="#00FF63"/>
<path d="M13.063 12.6889L7.18347 7.57792L6.30027 8.59393L12.1798 13.7049L13.063 12.6889Z" fill="#00FF68"/>
<path d="M13.1357 12.6238L7.34631 7.41103L6.44551 8.41148L12.2349 13.6243L13.1357 12.6238Z" fill="#00FF6C"/>
<path d="M13.2096 12.5601L7.51208 7.24702L6.59396 8.23159L12.2915 13.5446L13.2096 12.5601Z" fill="#00FF70"/>
<path d="M13.2846 12.4976L7.68066 7.08592L6.74549 8.05432L12.3494 13.466L13.2846 12.4976Z" fill="#00FF74"/>
<path d="M13.3607 12.4364L7.85205 6.92779L6.90012 7.87972L12.4088 13.3884L13.3607 12.4364Z" fill="#00FF78"/>
<path d="M13.4378 12.3766L8.02612 6.77267L7.05773 7.70784L12.4694 13.3118L13.4378 12.3766Z" fill="#00FF7D"/>
<path d="M13.516 12.3182L8.203 6.62062L7.21843 7.53875L12.5315 13.2363L13.516 12.3182Z" fill="#00FF81"/>
<path d="M13.5952 12.2611L8.38245 6.47168L7.382 7.37248L12.5948 13.1619L13.5952 12.2611Z" fill="#00FF85"/>
<path d="M13.6754 12.2054L8.56445 6.32589L7.54844 7.2091L12.6594 13.0886L13.6754 12.2054Z" fill="#00FF89"/>
<path d="M13.7565 12.1511L8.7489 6.1833L7.71763 7.04864L12.7252 13.0164L13.7565 12.1511Z" fill="#00FF8E"/>
<path d="M13.8386 12.0982L8.93591 6.04395L7.8897 6.89115L12.7924 12.9454L13.8386 12.0982Z" fill="#00FF92"/>
<path d="M13.9215 12.0468L9.12524 5.90788L8.0644 6.7367L12.8606 12.8756L13.9215 12.0468Z" fill="#00FF96"/>
<path d="M14.0054 11.9968L9.31702 5.77514L8.24187 6.58532L12.9302 12.807L14.0054 11.9968Z" fill="#00FF9A"/>
<path d="M14.0901 11.9483L9.51099 5.64577L8.42186 6.43706L13.0009 12.7396L14.0901 11.9483Z" fill="#00FF9F"/>
<path d="M14.1757 11.9013L9.70728 5.5198L8.60451 6.29196L13.0729 12.6735L14.1757 11.9013Z" fill="#00FFA3"/>
<path d="M14.262 11.8558L9.90564 5.39728L8.78957 6.15008L13.1459 12.6086L14.262 11.8558Z" fill="#00FFA7"/>
<path d="M14.3492 11.8118L10.1062 5.27824L8.97716 6.01145L13.2201 12.545L14.3492 11.8118Z" fill="#00FFAB"/>
<path d="M14.437 11.7693L10.3087 5.16271L9.16705 5.8761L13.2953 12.4827L14.437 11.7693Z" fill="#00FFB0"/>
<path d="M14.5257 11.7284L10.5133 5.05074L9.35936 5.74409L13.3717 12.4218L14.5257 11.7284Z" fill="#00FFB4"/>
<path d="M14.6149 11.689L10.7197 4.94235L9.55386 5.61547L13.4491 12.3621L14.6149 11.689Z" fill="#00FFB8"/>
<path d="M14.705 11.6512L10.9281 4.83759L9.75066 5.49026L13.5275 12.3039L14.705 11.6512Z" fill="#00FFBC"/>
<path d="M14.7956 11.615L11.1382 4.73648L9.94953 5.3685L13.6069 12.247L14.7956 11.615Z" fill="#00FFC1"/>
<path d="M14.8869 11.5803L11.3501 4.63905L10.1506 5.25022L13.6874 12.1915L14.8869 11.5803Z" fill="#00FFC5"/>
<path d="M14.9787 11.5473L11.5636 4.54533L10.3536 5.13547L13.7687 12.1374L14.9787 11.5473Z" fill="#00FFC9"/>
<path d="M15.0712 11.5158L11.7788 4.45535L10.5587 5.02429L13.8511 12.0848L15.0712 11.5158Z" fill="#00FFCD"/>
<path d="M15.1641 11.486L11.9955 4.36915L10.7656 4.91671L13.9343 12.0336L15.1641 11.486Z" fill="#00FFD1"/>
<path d="M15.2576 11.4578L12.2136 4.28674L10.9744 4.81275L14.0184 11.9838L15.2576 11.4578Z" fill="#00FFD6"/>
<path d="M15.3514 11.4313L12.4331 4.20814L11.1849 4.71244L14.1032 11.9356L15.3514 11.4313Z" fill="#00FFDA"/>
<path d="M15.4459 11.4063L12.6541 4.13338L11.3972 4.61583L14.1891 11.8888L15.4459 11.4063Z" fill="#00FFDE"/>
<path d="M15.5407 11.3831L12.8762 4.0625L11.6112 4.52294L14.2757 11.8435L15.5407 11.3831Z" fill="#00FFE2"/>
<path d="M15.6358 11.3615L13.0995 3.99551L11.8266 4.4338L14.3629 11.7998L15.6358 11.3615Z" fill="#00FFE7"/>
<path d="M15.7315 11.3415L13.3241 3.93242L12.0438 4.34843L14.4511 11.7575L15.7315 11.3415Z" fill="#00FFEB"/>
<path d="M15.8273 11.3233L13.5496 3.87326L12.2622 4.26686L14.5398 11.7169L15.8273 11.3233Z" fill="#00FFEF"/>
<path d="M15.9234 11.3067L13.7761 3.81805L12.482 4.18912L14.6294 11.6777L15.9234 11.3067Z" fill="#00FFF3"/>
<path d="M16.02 11.2917L14.0037 3.76679L12.7033 4.11522L14.7196 11.6402L16.02 11.2917Z" fill="#00FFF8"/>
<path d="M16.1167 11.2785L14.2321 3.71952L12.9258 4.0452L14.8105 11.6042L16.1167 11.2785Z" fill="#00FFFC"/>
<path d="M16.2136 11.267L14.4612 3.67624L13.1495 3.97907L14.9019 11.5698L16.2136 11.267Z" fill="#00FEFF"/>
<path d="M16.3108 11.2571L14.691 3.63696L13.3742 3.91686L14.9939 11.537L16.3108 11.2571Z" fill="#00FAFF"/>
<path d="M16.408 11.249L14.9215 3.60171L13.6 3.85858L15.0865 11.5058L16.408 11.249Z" fill="#00F5FF"/>
<path d="M16.5054 11.2425L15.1526 3.57047L13.8268 3.80424L15.1796 11.4763L16.5054 11.2425Z" fill="#00F1FF"/>
<path d="M16.6028 11.2378L15.3842 3.54328L14.0545 3.75388L15.2732 11.4484L16.6028 11.2378Z" fill="#00EDFF"/>
<path d="M16.7004 11.2347L15.6162 3.52014L14.2831 3.7075L15.3673 11.4221L16.7004 11.2347Z" fill="#00E9FF"/>
<path d="M16.798 11.2334L15.8486 3.50105L14.5124 3.66511L15.4618 11.3974L16.798 11.2334Z" fill="#00E4FF"/>
<path d="M16.8957 11.2337L16.0814 3.48601L14.7426 3.62673L15.5569 11.3744L16.8957 11.2337Z" fill="#00E0FF"/>
<path d="M16.9933 11.2358L16.3143 3.47504L14.9732 3.59238L15.6522 11.3531L16.9933 11.2358Z" fill="#00DCFF"/>
<path d="M17.0908 11.2396L16.5474 3.46814L15.2044 3.56205L15.7478 11.3335L17.0908 11.2396Z" fill="#00D8FF"/>
<path d="M17.1882 11.245L16.7805 3.4653L15.4361 3.53576L15.8439 11.3155L17.1882 11.245Z" fill="#00D4FF"/>
<path d="M17.2857 11.2522L17.0138 3.46655L15.6684 3.51353L15.9403 11.2992L17.2857 11.2522Z" fill="#00CFFF"/>
<path d="M17.3829 11.2611L17.2469 3.47185L15.9009 3.49534L16.0369 11.2846L17.3829 11.2611Z" fill="#00CBFF"/>
<path d="M17.4799 11.2716V3.48122H16.1336V11.2716H17.4799Z" fill="#00C7FF"/>
<path d="M17.5767 11.2839L17.7126 3.49466L16.3666 3.47116L16.2307 11.2604L17.5767 11.2839Z" fill="#00C3FF"/>
<path d="M17.6733 11.2978L17.9452 3.51215L16.5998 3.46517L16.3279 11.2508L17.6733 11.2978Z" fill="#00BEFF"/>
<path d="M17.7698 11.3134L18.1775 3.53371L16.8331 3.46326L16.4254 11.243L17.7698 11.3134Z" fill="#00BAFF"/>
<path d="M17.8657 11.3307L18.4092 3.55932L17.0662 3.46541L16.5228 11.2368L17.8657 11.3307Z" fill="#00B6FF"/>
<path d="M17.9615 11.3497L18.6405 3.58897L17.2994 3.47163L16.6204 11.2324L17.9615 11.3497Z" fill="#00B2FF"/>
<path d="M18.0569 11.3704L18.8712 3.62264L17.5324 3.48192L16.718 11.2296L18.0569 11.3704Z" fill="#00ADFF"/>
<path d="M18.152 11.3927L19.1014 3.66034L17.7652 3.49628L16.8158 11.2286L18.152 11.3927Z" fill="#00A9FF"/>
<path d="M18.2466 11.4166L19.3308 3.70205L17.9977 3.51469L16.9135 11.2293L18.2466 11.4166Z" fill="#00A5FF"/>
<path d="M18.3408 11.4422L19.5594 3.74776L18.2298 3.53716L17.0111 11.2316L18.3408 11.4422Z" fill="#00A1FF"/>
<path d="M18.4346 11.4695L19.7874 3.79745L18.4616 3.56368L17.1088 11.2357L18.4346 11.4695Z" fill="#009CFF"/>
<path d="M18.5278 11.4984L20.0143 3.85111L18.6928 3.59424L17.2063 11.2415L18.5278 11.4984Z" fill="#0098FF"/>
<path d="M18.6205 11.5289L20.2402 3.90872L18.9234 3.62883L17.3037 11.249L18.6205 11.5289Z" fill="#0094FF"/>
<path d="M18.7128 11.561L20.4652 3.97027L19.1535 3.66743L17.401 11.2582L18.7128 11.561Z" fill="#0090FF"/>
<path d="M18.8043 11.5947L20.689 4.03574L19.3827 3.71005L17.4981 11.269L18.8043 11.5947Z" fill="#008BFF"/>
<path d="M18.8953 11.63L20.9116 4.10509L19.6113 3.75667L17.595 11.2816L18.8953 11.63Z" fill="#0087FF"/>
<path d="M18.9857 11.6669L21.1331 4.17833L19.839 3.80726L17.6917 11.2959L18.9857 11.6669Z" fill="#0083FF"/>
<path d="M19.0753 11.7054L21.353 4.25542L20.0656 3.86182L17.7879 11.3118L19.0753 11.7054Z" fill="#007FFF"/>
<path d="M19.1644 11.7454L21.5718 4.33633L20.2914 3.92033L17.8841 11.3294L19.1644 11.7454Z" fill="#007BFF"/>
<path d="M19.2528 11.787L21.7891 4.42106L20.5162 3.98277L17.9799 11.3487L19.2528 11.787Z" fill="#0076FF"/>
<path d="M19.3403 11.8301L22.0048 4.50955L20.7397 4.04911L18.0752 11.3697L19.3403 11.8301Z" fill="#0072FF"/>
<path d="M19.4272 11.8748L22.219 4.60181L20.9622 4.11936L18.1704 11.3923L19.4272 11.8748Z" fill="#006EFF"/>
<path d="M19.5132 11.9209L22.4315 4.69778L21.1833 4.19348L18.265 11.4166L19.5132 11.9209Z" fill="#006AFF"/>
<path d="M19.5984 11.9686L22.6423 4.79745L21.4031 4.27144L18.3592 11.4425L19.5984 11.9686Z" fill="#0065FF"/>
<path d="M19.6827 12.0177L22.8513 4.90079L21.6215 4.35323L18.4528 11.4701L19.6827 12.0177Z" fill="#0061FF"/>
<path d="M19.7662 12.0683L23.0586 5.00776L21.8385 4.43882L18.5461 11.4993L19.7662 12.0683Z" fill="#005DFF"/>
<path d="M19.8488 12.1203L23.2639 5.11832L22.0539 4.52818L18.6388 11.5301L19.8488 12.1203Z" fill="#0059FF"/>
<path d="M19.9305 12.1738L23.4673 5.23246L22.2678 4.62128L18.731 11.5626L19.9305 12.1738Z" fill="#0054FF"/>
<path d="M20.0112 12.2286L23.6686 5.35012L22.4799 4.7181L18.8226 11.5966L20.0112 12.2286Z" fill="#0050FF"/>
<path d="M20.0909 12.2849L23.8678 5.47128L22.6904 4.81862L18.9135 11.6323L20.0909 12.2849Z" fill="#004CFF"/>
<path d="M20.1697 12.3426L24.0649 5.5959L22.8991 4.92279L19.0039 11.6695L20.1697 12.3426Z" fill="#0048FF"/>
<path d="M20.2474 12.4016L24.2598 5.72395L23.1058 5.03059L19.0935 11.7083L20.2474 12.4016Z" fill="#0043FF"/>
<path d="M20.3241 12.462L24.4524 5.85536L23.3107 5.14197L19.1824 11.7486L20.3241 12.462Z" fill="#003FFF"/>
<path d="M20.3997 12.5237L24.6427 5.99013L23.5137 5.25692L19.2707 11.7905L20.3997 12.5237Z" fill="#003BFF"/>
<path d="M20.4744 12.5867L24.8307 6.1282L23.7146 5.37539L19.3583 11.8339L20.4744 12.5867Z" fill="#0037FF"/>
<path d="M20.5477 12.651L25.0161 6.26952L23.9133 5.49735L19.445 11.8789L20.5477 12.651Z" fill="#0032FF"/>
<path d="M20.62 12.7166L25.1991 6.41406L24.11 5.62277L19.5309 11.9253L20.62 12.7166Z" fill="#002EFF"/>
<path d="M20.6913 12.7835L25.3796 6.56178L24.3045 5.75159L19.6161 11.9733L20.6913 12.7835Z" fill="#002AFF"/>
<path d="M20.7612 12.8515L25.5575 6.71261L24.4967 5.88379L19.7004 12.0227L20.7612 12.8515Z" fill="#0026FF"/>
<path d="M20.83 12.9208L25.7327 6.86653L24.6864 6.01932L19.7838 12.0736L20.83 12.9208Z" fill="#0022FF"/>
<path d="M17.2208 29.7246H16.4561C16.4206 29.7117 16.385 29.7085 16.3492 29.7085C15.9409 29.6892 15.5356 29.6563 15.1338 29.6016C14.3822 29.5044 13.6432 29.3391 12.9239 29.1093C11.6893 28.7142 10.539 28.1473 9.47288 27.4085C8.48429 26.7215 7.60972 25.9117 6.84808 24.9789C5.95016 23.8838 5.2505 22.6753 4.75449 21.3474C4.31041 20.1682 4.04477 18.9471 3.96357 17.6867C3.96357 17.6187 3.95067 17.5507 3.9281 17.4826V16.1511C3.95067 16.0924 3.96035 16.0312 3.96357 15.9697C3.97969 15.6683 4.01194 15.367 4.05128 15.0692C4.24585 13.6309 4.6733 12.2667 5.33124 10.974C5.78487 10.083 6.33582 9.25403 6.98364 8.48903C7.62533 7.73113 8.34473 7.05377 9.14165 6.4611C10.4412 5.49553 11.8703 4.79909 13.432 4.37171C14.1902 4.16462 14.9649 4.02855 15.7488 3.96354C15.888 3.95064 16.0341 3.96354 16.1733 3.92807H17.4824C17.5827 3.95709 17.6866 3.94097 17.7868 3.95064C18.3056 3.99579 18.8208 4.06099 19.3324 4.16127C20.9431 4.47876 22.4367 5.0815 23.8174 5.97193C24.8901 6.66192 25.8363 7.49444 26.6625 8.46304C27.3269 9.24061 27.8905 10.0862 28.3507 10.9994C28.8951 12.0784 29.2838 13.2088 29.5046 14.3976C29.6211 15.026 29.7088 15.661 29.7118 16.3025C29.7118 16.345 29.7214 16.3902 29.7247 16.432V17.1966C29.7118 17.245 29.7118 17.2969 29.7085 17.3487C29.7085 17.4717 29.7085 17.5952 29.6989 17.7181C29.6402 18.5023 29.5174 19.2764 29.3228 20.0409C28.9502 21.4761 28.3504 22.8076 27.5176 24.0352C26.8986 24.9488 26.1762 25.7718 25.3465 26.5005C24.5203 27.2262 23.6159 27.8386 22.634 28.3339C21.5028 28.9039 20.3136 29.2995 19.066 29.5162C18.5865 29.6003 18.1036 29.6553 17.6177 29.6845C17.4897 29.6993 17.3539 29.6963 17.2208 29.7246Z" fill="#383838"/>
<path style="mix-blend-mode:lighten" d="M13.4715 11.4745C13.4625 11.7115 13.5046 11.9706 13.5744 12.2298C13.7075 12.7228 13.9279 13.1746 14.1879 13.6014C14.7802 14.5718 15.5267 15.4027 16.3366 16.174C16.403 16.2375 16.4819 16.291 16.5665 16.3318C16.6512 16.3759 16.7357 16.3759 16.8232 16.3381C16.9078 16.3004 16.9834 16.2466 17.0469 16.1769C17.328 15.8862 17.6059 15.5952 17.8719 15.2949C18.2466 14.8681 18.6034 14.4291 18.9267 13.9581C19.2201 13.5314 19.4828 13.0825 19.6761 12.5958C19.8693 12.1121 19.9632 11.6131 19.8998 11.0885C19.794 10.2227 19.4406 9.48922 18.8088 8.91406C18.0618 8.23509 17.1917 7.96323 16.2126 8.11467C14.62 8.36148 13.4654 9.82806 13.4715 11.4745Z" fill="url(#paint0_radial_89_2)"/>
<path d="M21.7137 23.2746C21.5132 23.2807 21.2881 23.2559 21.0631 23.2081C20.3974 23.0623 19.8319 22.7597 19.3974 22.223C19.1331 21.8958 18.911 21.5411 18.7195 21.1682C18.4943 20.7287 18.3062 20.2708 18.1422 19.8073C17.9417 19.2466 17.7715 18.6737 17.6405 18.0947C17.5677 17.7702 17.6495 17.567 18.0083 17.4553C18.4641 17.3128 18.9232 17.1855 19.3913 17.0823C20.1662 16.9125 20.9473 16.8035 21.744 16.8304C21.969 16.8394 22.1936 16.8636 22.4158 16.903C23.0602 17.0153 23.6072 17.3124 24.054 17.782C24.8171 18.5822 25.1206 19.5371 24.9324 20.6254C24.662 22.1806 23.2819 23.2868 21.7137 23.2746Z" fill="url(#paint1_radial_89_2)"/>
<path d="M11.6762 23.2746C11.8767 23.2807 12.1017 23.2559 12.3267 23.2081C12.9925 23.0623 13.5579 22.7597 13.9924 22.223C14.2567 21.8958 14.4789 21.5411 14.6704 21.1682C14.8955 20.7287 15.0836 20.2708 15.2477 19.8073C15.4481 19.2466 15.6183 18.6737 15.7494 18.0947C15.8221 17.7702 15.7403 17.567 15.3815 17.4553C14.9258 17.3128 14.4666 17.1855 13.9986 17.0823C13.2237 16.9125 12.4426 16.8035 11.6459 16.8304C11.4208 16.8394 11.1962 16.8636 10.9741 16.903C10.3296 17.0153 9.78265 17.3124 9.33589 17.782C8.57279 18.5822 8.26926 19.5371 8.45744 20.6254C8.72788 22.1806 10.108 23.2868 11.6762 23.2746Z" fill="url(#paint2_radial_89_2)"/>
</g>
<defs>
<radialGradient id="paint0_radial_89_2" cx="0" cy="0" r="1" gradientUnits="userSpaceOnUse" gradientTransform="translate(16.7573 15.9359) rotate(4.82254) scale(3.42523 6.33155)">
<stop stop-color="white"/>
<stop offset="1" stop-color="#009BD8"/>
</radialGradient>
<radialGradient id="paint1_radial_89_2" cx="0" cy="0" r="1" gradientUnits="userSpaceOnUse" gradientTransform="translate(17.652 17.8965) rotate(21.7759) scale(7.55334 4.03633)">
<stop stop-color="white"/>
<stop offset="1" stop-color="#FF3044"/>
</radialGradient>
<radialGradient id="paint2_radial_89_2" cx="0" cy="0" r="1" gradientUnits="userSpaceOnUse" gradientTransform="translate(15.6978 17.6228) rotate(146.321) scale(7.63319 3.46968)">
<stop stop-color="white"/>
<stop offset="1" stop-color="#FCFF7C"/>
</radialGradient>
<clipPath id="clip0_89_2">
<rect width="34" height="34" fill="white"/>
</clipPath>
</defs>
</svg>
