<svg width="35" height="35" viewBox="0 0 35 35" fill="none" xmlns="http://www.w3.org/2000/svg">
<rect x="0.4" y="0.4" width="34.2" height="34.2" rx="7.6" fill="#383838" stroke="url(#paint0_angular_96_441)" stroke-width="0.8"/>
<path style="mix-blend-mode:lighten" d="M12.9909 10.6905C12.9785 11.0174 13.0366 11.3747 13.1329 11.7321C13.3163 12.4122 13.6204 13.0354 13.979 13.624C14.7959 14.9626 15.8256 16.1086 16.9428 17.1726C17.0343 17.26 17.1432 17.3339 17.2598 17.3902C17.3766 17.4509 17.4932 17.4509 17.6139 17.3988C17.7305 17.3468 17.8349 17.2727 17.9225 17.1764C18.3102 16.7756 18.6934 16.3742 19.0604 15.9599C19.5772 15.3713 20.0693 14.7657 20.5153 14.1161C20.92 13.5276 21.2824 12.9084 21.5489 12.2371C21.8154 11.5698 21.945 10.8816 21.8575 10.158C21.7116 8.96386 21.2241 7.95211 20.3527 7.15878C19.3223 6.22227 18.1222 5.8473 16.7716 6.05617C14.5749 6.39661 12.9825 8.41947 12.9909 10.6905Z" fill="url(#paint1_radial_96_441)"/>
<path d="M24.3593 26.9664C24.0828 26.9748 23.7723 26.9406 23.462 26.8747C22.5437 26.6737 21.7638 26.2562 21.1645 25.516C20.8 25.0646 20.4935 24.5754 20.2294 24.061C19.9188 23.4548 19.6594 22.8232 19.4331 22.1839C19.1566 21.4106 18.9218 20.6204 18.7411 19.8217C18.6408 19.3742 18.7536 19.0939 19.2485 18.9397C19.8771 18.7433 20.5105 18.5677 21.156 18.4253C22.2249 18.1911 23.3022 18.0408 24.4011 18.0779C24.7115 18.0903 25.0213 18.1236 25.3277 18.178C26.2166 18.3329 26.9711 18.7426 27.5873 19.3904C28.6399 20.4942 29.0585 21.8112 28.799 23.3124C28.4259 25.4575 26.5224 26.9833 24.3593 26.9664Z" fill="url(#paint2_radial_96_441)"/>
<path d="M10.5145 26.9664C10.791 26.9748 11.1014 26.9406 11.4118 26.8747C12.33 26.6737 13.1099 26.2562 13.7093 25.516C14.0738 25.0646 14.3803 24.5754 14.6444 24.061C14.9549 23.4548 15.2144 22.8232 15.4407 22.1839C15.7172 21.4106 15.9519 20.6204 16.1326 19.8217C16.233 19.3742 16.1202 19.0939 15.6253 18.9397C14.9966 18.7433 14.3633 18.5677 13.7177 18.4253C12.6489 18.1911 11.5716 18.0408 10.4727 18.0779C10.1623 18.0903 9.85247 18.1236 9.54603 18.178C8.65716 18.3329 7.9027 18.7426 7.28648 19.3904C6.23392 20.4942 5.81526 21.8112 6.07481 23.3124C6.44783 25.4575 8.35139 26.9833 10.5145 26.9664Z" fill="url(#paint3_radial_96_441)"/>
<defs>
<radialGradient id="paint0_angular_96_441" cx="0" cy="0" r="1" gradientUnits="userSpaceOnUse" gradientTransform="translate(18 18) rotate(-48.8141) scale(21.2603 21.844)">
<stop offset="0.160789" stop-color="#00F1FF"/>
<stop offset="0.395833" stop-color="#15FF3F"/>
<stop offset="0.609375" stop-color="#FFE600"/>
<stop offset="0.739978" stop-color="#FF0005"/>
<stop offset="0.884347" stop-color="#F900FF"/>
<stop offset="0.988848" stop-color="#0022FF"/>
</radialGradient>
<radialGradient id="paint1_radial_96_441" cx="0" cy="0" r="1" gradientUnits="userSpaceOnUse" gradientTransform="translate(17.523 16.844) rotate(4.82254) scale(4.72446 8.73318)">
<stop stop-color="#ACE5F1"/>
<stop offset="1" stop-color="#0094FF"/>
</radialGradient>
<radialGradient id="paint2_radial_96_441" cx="0" cy="0" r="1" gradientUnits="userSpaceOnUse" gradientTransform="translate(18.7571 19.5483) rotate(21.7759) scale(10.4184 5.56735)">
<stop stop-color="white"/>
<stop offset="0.9999" stop-color="#FF0019"/>
<stop offset="1" stop-color="#FF3044"/>
</radialGradient>
<radialGradient id="paint3_radial_96_441" cx="0" cy="0" r="1" gradientUnits="userSpaceOnUse" gradientTransform="translate(16.0615 19.1708) rotate(146.321) scale(10.5285 4.78577)">
<stop stop-color="white"/>
<stop offset="1" stop-color="#F9FF00"/>
</radialGradient>
</defs>
</svg>
