<svg width="35" height="35" viewBox="0 0 35 35" fill="none" xmlns="http://www.w3.org/2000/svg">
<rect x="0.4" y="0.4" width="34.2" height="34.2" rx="7.6" fill="#1B1B1B" stroke="url(#paint0_angular_96_441)" stroke-width="0.8"/>
<path style="mix-blend-mode:lighten" d="M12.1561 10.4722C12.1416 10.8536 12.2093 11.2705 12.3217 11.6875C12.5358 12.4809 12.8906 13.208 13.3089 13.8947C14.262 15.4563 15.4632 16.7933 16.7666 18.0346C16.8733 18.1367 17.0004 18.2229 17.1365 18.2886C17.2727 18.3594 17.4088 18.3594 17.5496 18.2986C17.6857 18.2379 17.8074 18.1514 17.9096 18.0392C18.3619 17.5715 18.809 17.1032 19.2372 16.6199C19.8401 15.9331 20.4142 15.2267 20.9346 14.4688C21.4067 13.7822 21.8295 13.0598 22.1404 12.2766C22.4514 11.4981 22.6025 10.6952 22.5004 9.85094C22.3302 8.45784 21.7614 7.27746 20.7448 6.35191C19.5428 5.25931 18.1426 4.82185 16.5669 5.06554C14.0041 5.46271 12.1463 7.82271 12.1561 10.4722Z" fill="url(#paint1_radial_96_441)"/>
<path d="M25.4191 29.4608C25.0966 29.4706 24.7344 29.4307 24.3723 29.3538C23.301 29.1193 22.3911 28.6322 21.6919 27.7686C21.2666 27.242 20.9091 26.6714 20.6009 26.0711C20.2386 25.3639 19.9359 24.6271 19.6719 23.8812C19.3494 22.979 19.0755 22.0571 18.8646 21.1253C18.7475 20.6033 18.8792 20.2762 19.4565 20.0964C20.19 19.8672 20.9288 19.6623 21.682 19.4962C22.929 19.2229 24.1859 19.0476 25.4679 19.0908C25.8301 19.1054 26.1915 19.1442 26.549 19.2076C27.586 19.3884 28.4662 19.8664 29.1852 20.6222C30.4132 21.9099 30.9016 23.4464 30.5988 25.1978C30.1636 27.7004 27.9428 29.4805 25.4191 29.4608Z" fill="url(#paint2_radial_96_441)"/>
<path d="M9.26691 29.4608C9.58948 29.4706 9.95167 29.4307 10.3138 29.3538C11.385 29.1193 12.2949 28.6322 12.9942 27.7686C13.4195 27.242 13.777 26.6714 14.0851 26.0711C14.4474 25.3639 14.7501 24.6271 15.0141 23.8812C15.3367 22.979 15.6106 22.0571 15.8214 21.1253C15.9385 20.6033 15.8069 20.2762 15.2295 20.0964C14.4961 19.8672 13.7572 19.6623 13.004 19.4962C11.7571 19.2229 10.5002 19.0476 9.21815 19.0908C8.85596 19.1054 8.49455 19.1442 8.13704 19.2076C7.10002 19.3884 6.21981 19.8664 5.50089 20.6222C4.2729 21.9099 3.78447 23.4464 4.08728 25.1978C4.52247 27.7004 6.74328 29.4805 9.26691 29.4608Z" fill="url(#paint3_radial_96_441)"/>
<defs>
<radialGradient id="paint0_angular_96_441" cx="0" cy="0" r="1" gradientUnits="userSpaceOnUse" gradientTransform="translate(18 18) rotate(-48.8141) scale(21.2603 21.844)">
<stop offset="0.160789" stop-color="#00F1FF"/>
<stop offset="0.395833" stop-color="#15FF3F"/>
<stop offset="0.609375" stop-color="#FFE600"/>
<stop offset="0.739978" stop-color="#FF0005"/>
<stop offset="0.884347" stop-color="#F900FF"/>
<stop offset="0.988848" stop-color="#0022FF"/>
</radialGradient>
<radialGradient id="paint1_radial_96_441" cx="0" cy="0" r="1" gradientUnits="userSpaceOnUse" gradientTransform="translate(17.4436 17.6514) rotate(4.82254) scale(5.51187 10.1887)">
<stop stop-color="#ACE5F1"/>
<stop offset="1" stop-color="#0094FF"/>
</radialGradient>
<radialGradient id="paint2_radial_96_441" cx="0" cy="0" r="1" gradientUnits="userSpaceOnUse" gradientTransform="translate(18.8832 20.8064) rotate(21.7759) scale(12.1548 6.49524)">
<stop stop-color="white"/>
<stop offset="0.9999" stop-color="#FF0019"/>
<stop offset="1" stop-color="#FF3044"/>
</radialGradient>
<radialGradient id="paint3_radial_96_441" cx="0" cy="0" r="1" gradientUnits="userSpaceOnUse" gradientTransform="translate(15.7384 20.366) rotate(146.321) scale(12.2833 5.58339)">
<stop stop-color="white"/>
<stop offset="1" stop-color="#F9FF00"/>
</radialGradient>
</defs>
</svg>
