<svg width="35" height="35" viewBox="0 0 35 35" fill="none" xmlns="http://www.w3.org/2000/svg">
<g clip-path="url(#clip0_89_2)">
<path d="M26.7969 0H8.20312C3.67266 0 0 3.67266 0 8.20312V26.7969C0 31.3273 3.67266 35 8.20312 35H26.7969C31.3273 35 35 31.3273 35 26.7969V8.20312C35 3.67266 31.3273 0 26.7969 0Z" fill="#1B1B1B"/>
<path fill-rule="evenodd" clip-rule="evenodd" d="M17.5342 17.4829C17.5342 15.095 19.47 13.1592 21.8579 13.1592C24.2458 13.1592 26.1816 15.095 26.1816 17.4829C26.1816 19.8708 24.2458 21.8066 21.8579 21.8066C19.47 21.8066 17.5342 19.8708 17.5342 17.4829Z" fill="#1ABCFE"/>
<path fill-rule="evenodd" clip-rule="evenodd" d="M8.88672 26.1304C8.88672 23.7425 10.8225 21.8066 13.2104 21.8066H17.5342V26.1304C17.5342 28.5183 15.5983 30.4541 13.2104 30.4541C10.8225 30.4541 8.88672 28.5183 8.88672 26.1304Z" fill="#0ACF83"/>
<path fill-rule="evenodd" clip-rule="evenodd" d="M17.5342 4.51172V13.1592H21.8579C24.2458 13.1592 26.1816 11.2233 26.1816 8.83545C26.1816 6.44752 24.2458 4.51172 21.8579 4.51172H17.5342Z" fill="#FF7262"/>
<path fill-rule="evenodd" clip-rule="evenodd" d="M8.88672 8.83545C8.88672 11.2233 10.8225 13.1592 13.2104 13.1592H17.5342V4.51172H13.2104C10.8225 4.51172 8.88672 6.44752 8.88672 8.83545Z" fill="#F24E1E"/>
<path fill-rule="evenodd" clip-rule="evenodd" d="M8.88672 17.4829C8.88672 19.8708 10.8225 21.8066 13.2104 21.8066H17.5342V13.1592H13.2104C10.8225 13.1592 8.88672 15.095 8.88672 17.4829Z" fill="#A259FF"/>
</g>
<defs>
<clipPath id="clip0_89_2">
<rect width="35" height="35" fill="white"/>
</clipPath>
</defs>
</svg>
