<svg width="34" height="34" viewBox="0 0 34 34" fill="none" xmlns="http://www.w3.org/2000/svg">
<g clip-path="url(#clip0_89_2)">
<path d="M26.0312 0H7.96875C3.56773 0 0 3.56773 0 7.96875V26.0312C0 30.4323 3.56773 34 7.96875 34H26.0312C30.4323 34 34 30.4323 34 26.0312V7.96875C34 3.56773 30.4323 0 26.0312 0Z" fill="#242938"/>
<path fill-rule="evenodd" clip-rule="evenodd" d="M17.0332 16.9834C17.0332 14.6637 18.9137 12.7832 21.2334 12.7832C23.5531 12.7832 25.4336 14.6637 25.4336 16.9834C25.4336 19.3031 23.5531 21.1836 21.2334 21.1836C18.9137 21.1836 17.0332 19.3031 17.0332 16.9834Z" fill="#1ABCFE"/>
<path fill-rule="evenodd" clip-rule="evenodd" d="M8.63281 25.3838C8.63281 23.0641 10.5133 21.1836 12.833 21.1836H17.0332V25.3838C17.0332 27.7035 15.1527 29.584 12.833 29.584C10.5133 29.584 8.63281 27.7035 8.63281 25.3838Z" fill="#0ACF83"/>
<path fill-rule="evenodd" clip-rule="evenodd" d="M17.0332 4.38281V12.7832H21.2334C23.5531 12.7832 25.4336 10.9027 25.4336 8.58301C25.4336 6.2633 23.5531 4.38281 21.2334 4.38281H17.0332Z" fill="#FF7262"/>
<path fill-rule="evenodd" clip-rule="evenodd" d="M8.63281 8.58301C8.63281 10.9027 10.5133 12.7832 12.833 12.7832H17.0332V4.38281H12.833C10.5133 4.38281 8.63281 6.2633 8.63281 8.58301Z" fill="#F24E1E"/>
<path fill-rule="evenodd" clip-rule="evenodd" d="M8.63281 16.9834C8.63281 19.3031 10.5133 21.1836 12.833 21.1836H17.0332V12.7832H12.833C10.5133 12.7832 8.63281 14.6637 8.63281 16.9834Z" fill="#A259FF"/>
</g>
<defs>
<clipPath id="clip0_89_2">
<rect width="34" height="34" fill="white"/>
</clipPath>
</defs>
</svg>
