<svg width="34" height="34" viewBox="0 0 34 34" fill="none" xmlns="http://www.w3.org/2000/svg">
<g clip-path="url(#clip0_89_2)">
<path d="M26.0312 0H7.96875C3.56773 0 0 3.56773 0 7.96875V26.0312C0 30.4323 3.56773 34 7.96875 34H26.0312C30.4323 34 34 30.4323 34 26.0312V7.96875C34 3.56773 30.4323 0 26.0312 0Z" fill="#242938"/>
<path d="M13.5113 9.26762C13.5113 9.26762 9.64587 13.4285 9.64587 20.7716C9.64587 26.9347 12.0656 29.5833 14.2841 29.5833C15.3148 29.5833 18.6643 28.8493 22.0144 23.2196C25.8853 16.7146 25.3645 13.6738 25.3645 13.6738L13.5113 9.26762Z" fill="#FE900D"/>
<path d="M22.9079 8.56136C21.1395 8.56136 20.2556 8.98488 20.2556 8.98488C19.2153 6.98327 18.4093 6.02084 15.809 6.02084C11.1279 6.02084 9.64587 9.44646 9.64587 10.4476C9.64587 10.7962 10.296 11.1019 11.8565 11.1019C13.4171 11.1019 15.3933 10.6784 15.3933 10.6784C15.0949 11.2505 14.9511 11.9483 14.9511 12.7954C14.9511 14.9124 16.2772 16.6058 18.0456 16.6058C20.6979 16.6058 22.024 13.6424 22.024 13.6424C22.024 13.6424 25.1186 17.0294 26.2109 17.0294C27.2513 17.0294 27.7709 15.5286 27.7709 13.5264C27.7709 12.025 26.5486 8.56136 22.9079 8.56136Z" fill="#4AAE52"/>
<path d="M19.9167 10.0941C19.8351 10.0941 19.7529 10.0778 19.6738 10.0428C19.3687 9.90804 19.2297 9.55158 19.3639 9.24648C19.8526 8.13662 21.5576 5.46198 23.2879 4.30983C23.5652 4.12375 23.9404 4.19987 24.1253 4.47779C24.3108 4.7551 24.2353 5.13029 23.9573 5.31517C22.4228 6.33742 20.841 8.89002 20.4701 9.73344C20.3698 9.9594 20.1487 10.0941 19.9167 10.0941Z" fill="#4AAE52"/>
<path d="M12.0619 22.3333C11.758 22.3333 11.4958 22.1037 11.462 21.7944C11.2705 20.0321 11.4813 18.1217 12.0885 16.1165C12.1852 15.7968 12.5229 15.6156 12.8419 15.7135C13.1615 15.8101 13.3422 16.1473 13.2449 16.4669C12.6854 18.3156 12.4897 20.0647 12.6631 21.6639C12.6993 21.9962 12.4595 22.2941 12.1278 22.3303C12.1054 22.3321 12.0837 22.3333 12.0619 22.3333Z" fill="#FDC82E"/>
</g>
<defs>
<clipPath id="clip0_89_2">
<rect width="34" height="34" fill="white"/>
</clipPath>
</defs>
</svg>
