<svg width="100" height="100" viewBox="0 0 100 100" fill="none" xmlns="http://www.w3.org/2000/svg">
<path d="M70.8687 87.4792L29.202 87.5187C20.0354 87.5271 12.5291 80.0354 12.5187 70.8687L12.4791 29.2021C12.4708 20.0354 19.9625 12.5292 29.1291 12.5188L70.7958 12.4792C79.9625 12.4708 87.4687 19.9625 87.4791 29.1292L87.5187 70.7958C87.5291 79.9646 80.0354 87.4708 70.8687 87.4792Z" fill="url(#paint0_radial_104_465)"/>
<path d="M70.8687 87.4792L29.202 87.5187C20.0354 87.5271 12.5291 80.0354 12.5187 70.8687L12.4791 29.2021C12.4708 20.0354 19.9625 12.5292 29.1291 12.5188L70.7958 12.4792C79.9625 12.4708 87.4687 19.9625 87.4791 29.1292L87.5187 70.7958C87.5291 79.9646 80.0354 87.4708 70.8687 87.4792Z" fill="url(#paint1_radial_104_465)"/>
<path d="M50 64.5833C41.9604 64.5833 35.4166 58.0417 35.4166 50C35.4166 41.9583 41.9604 35.4167 50 35.4167C58.0395 35.4167 64.5833 41.9583 64.5833 50C64.5833 58.0417 58.0395 64.5833 50 64.5833ZM50 39.5833C44.2562 39.5833 39.5833 44.2563 39.5833 50C39.5833 55.7438 44.2562 60.4167 50 60.4167C55.7437 60.4167 60.4166 55.7438 60.4166 50C60.4166 44.2563 55.7437 39.5833 50 39.5833Z" fill="white"/>
<path d="M65.625 37.5C67.3509 37.5 68.75 36.1009 68.75 34.375C68.75 32.6491 67.3509 31.25 65.625 31.25C63.8991 31.25 62.5 32.6491 62.5 34.375C62.5 36.1009 63.8991 37.5 65.625 37.5Z" fill="white"/>
<path d="M62.5 77.0833H37.5C29.4604 77.0833 22.9166 70.5417 22.9166 62.5V37.5C22.9166 29.4583 29.4604 22.9167 37.5 22.9167H62.5C70.5395 22.9167 77.0833 29.4583 77.0833 37.5V62.5C77.0833 70.5417 70.5395 77.0833 62.5 77.0833ZM37.5 27.0833C31.7562 27.0833 27.0833 31.7563 27.0833 37.5V62.5C27.0833 68.2437 31.7562 72.9167 37.5 72.9167H62.5C68.2437 72.9167 72.9166 68.2437 72.9166 62.5V37.5C72.9166 31.7563 68.2437 27.0833 62.5 27.0833H37.5Z" fill="white"/>
<defs>
<radialGradient id="paint0_radial_104_465" cx="0" cy="0" r="1" gradientUnits="userSpaceOnUse" gradientTransform="translate(40.375 87.5729) scale(93.5396 93.5396)">
<stop stop-color="#FFDD55"/>
<stop offset="0.328" stop-color="#FF543F"/>
<stop offset="0.348" stop-color="#FC5245"/>
<stop offset="0.504" stop-color="#E64771"/>
<stop offset="0.643" stop-color="#D53E91"/>
<stop offset="0.761" stop-color="#CC39A4"/>
<stop offset="0.841" stop-color="#C837AB"/>
</radialGradient>
<radialGradient id="paint1_radial_104_465" cx="0" cy="0" r="1" gradientUnits="userSpaceOnUse" gradientTransform="translate(24.5541 11.5423) scale(62.1104 41.3842)">
<stop stop-color="#4168C9"/>
<stop offset="0.999" stop-color="#4168C9" stop-opacity="0"/>
</radialGradient>
</defs>
</svg>
